<svg width="24" height="24" viewBox="0 0 24 24" fill="none" xmlns="http://www.w3.org/2000/svg">
<path d="M0 1.71921C0 0.769972 0.794024 0 1.77355 0H22.2264C23.2059 0 24 0.769972 24 1.71921V22.2808C24 23.2303 23.2059 24 22.2264 24H1.77355C0.794024 24 0 23.2303 0 22.2808V1.71921Z" fill="#006699"/>
<path fill-rule="evenodd" clip-rule="evenodd" d="M7.92094 20V9.20427H4.27671V20H7.92094ZM6.09881 7.7303C7.36962 7.7303 8.1606 6.90131 8.1606 5.86531C8.13692 4.80599 7.36963 4 6.12291 4C4.87633 4 4.06128 4.80599 4.06128 5.86531C4.06128 6.90131 4.85209 7.7303 6.07505 7.7303H6.09881Z" fill="white"/>
<path fill-rule="evenodd" clip-rule="evenodd" d="M9.93726 20H13.5815V13.9712C13.5815 13.6486 13.6051 13.3262 13.7014 13.0956C13.9648 12.4509 14.5644 11.7832 15.5712 11.7832C16.8898 11.7832 17.4173 12.7732 17.4173 14.2245V20H21.0613V13.8099C21.0613 10.4939 19.2634 8.95094 16.8658 8.95094C14.8998 8.95094 14.0367 10.0329 13.5572 10.7699H13.5816V9.20427H9.93735C9.98518 10.2173 9.93726 20 9.93726 20Z" fill="white"/>
</svg>
