<svg width="22" height="24" viewBox="0 0 22 24" fill="none" xmlns="http://www.w3.org/2000/svg">
<path d="M8.24913 9.45175V8.51656C7.92537 8.46511 7.59836 8.43692 7.2706 8.43221C4.09751 8.42548 1.28819 10.4874 0.335336 13.5224C-0.617493 16.5575 0.507223 19.8612 3.11195 21.6785C1.16081 19.5846 0.619021 16.5364 1.72862 13.8956C2.83823 11.2546 5.39199 9.51425 8.24913 9.45175Z" fill="#25F4EE"/>
<path d="M8.42513 20.0457C10.1993 20.0433 11.6576 18.6418 11.7353 16.8645V1.00421H14.625C14.566 0.672807 14.5378 0.336625 14.5409 0L10.5886 0V15.8449C10.5229 17.6313 9.06112 19.0463 7.27845 19.0492C6.74572 19.0447 6.22169 18.9133 5.74951 18.6659C6.05552 19.091 6.4574 19.4376 6.92239 19.6774C7.38737 19.9172 7.90226 20.0434 8.42513 20.0457ZM20.0221 6.38552V5.50395C18.9586 5.50431 17.9187 5.18962 17.033 4.59939C17.8095 5.5045 18.8587 6.13148 20.0221 6.38552Z" fill="#25F4EE"/>
<path d="M17.033 4.59938C16.1605 3.6031 15.6795 2.32241 15.6799 0.996521H14.6249C14.7612 1.7296 15.045 2.42714 15.459 3.04658C15.873 3.66603 16.4086 4.19437 17.033 4.59938ZM7.2708 12.3954C5.74833 12.4032 4.42656 13.4491 4.06498 14.9321C3.70337 16.4151 4.39475 17.9545 5.74186 18.6659C5.01194 17.6554 4.90882 16.3198 5.47493 15.2087C6.04111 14.0975 7.18081 13.3987 8.42514 13.3996C8.75693 13.4037 9.08643 13.4554 9.40367 13.5529V9.52072C9.07971 9.47205 8.75271 9.44644 8.42514 9.44408H8.2493V12.5103C7.93042 12.4246 7.60081 12.3859 7.2708 12.3954Z" fill="#FE2C55"/>
<path d="M20.0221 6.38556V9.45181C18.0533 9.44799 16.1357 8.82312 14.5408 7.66571V15.7223C14.5324 19.7425 11.2799 22.9971 7.27077 22.9971C5.78186 22.9997 4.32881 22.539 3.11206 21.6786C5.14265 23.8685 8.30284 24.5894 11.0783 23.4958C13.8538 22.4021 15.6792 19.7168 15.6798 16.7265V8.69291C17.2801 9.84274 19.2001 10.4595 21.1687 10.456V6.5082C20.7833 6.50697 20.3991 6.46588 20.0221 6.38556Z" fill="#FE2C55"/>
<path d="M14.5407 15.7223V7.66566C16.1404 8.81643 18.0607 9.43326 20.0295 9.42878V6.3625C18.8664 6.1162 17.8146 5.4974 17.0328 4.59938C16.4084 4.19437 15.8729 3.66603 15.4588 3.04658C15.0448 2.42714 14.761 1.7296 14.6248 0.996521H11.7351V16.8644C11.6773 18.2801 10.7317 19.5038 9.37902 19.9133C8.02634 20.3228 6.56342 19.8283 5.73403 18.6812C4.38695 17.9699 3.69557 16.4304 4.05715 14.9474C4.41876 13.4644 5.7405 12.4185 7.26297 12.4107C7.59483 12.4137 7.92451 12.4653 8.2415 12.564V9.49776C5.36829 9.54655 2.79523 11.293 1.68251 13.9497C0.569767 16.6064 1.12753 19.6714 3.10429 21.7628C4.33304 22.5949 5.78819 23.026 7.27063 22.997C11.2798 22.997 14.5322 19.7425 14.5407 15.7223Z" fill="black"/>
</svg>
