<svg width="24" height="20" viewBox="0 0 24 20" fill="none" xmlns="http://www.w3.org/2000/svg">
<path d="M7.54752 20C16.6042 20 21.5578 12.3047 21.5578 5.63144C21.5578 5.41287 21.5578 5.19529 21.5434 4.97869C22.507 4.26381 23.3389 3.37867 24 2.3647C23.1014 2.77329 22.148 3.04112 21.1718 3.15923C22.1998 2.52818 22.9692 1.53552 23.3366 0.366057C22.3701 0.954335 21.3126 1.36889 20.2099 1.59182C19.4675 0.782212 18.4856 0.246107 17.4162 0.0664704C16.3468 -0.113166 15.2494 0.0736804 14.294 0.598096C13.3385 1.12251 12.5782 1.95526 12.1307 2.96748C11.6833 3.9797 11.5735 5.11495 11.8186 6.19756C9.8609 6.09685 7.94576 5.57507 6.19745 4.66609C4.44915 3.75712 2.90676 2.48127 1.6704 0.921344C1.04073 2.03306 0.847872 3.34911 1.1311 4.60154C1.41433 5.85397 2.15234 6.9486 3.19488 7.66257C2.41123 7.63902 1.64465 7.42221 0.96 7.03049V7.09449C0.960311 8.26041 1.35385 9.39034 2.07387 10.2926C2.79389 11.1949 3.79606 11.8139 4.9104 12.0448C4.18548 12.2476 3.42487 12.2772 2.68704 12.1315C3.00181 13.1348 3.61443 14.0122 4.43924 14.641C5.26405 15.2698 6.25983 15.6185 7.28736 15.6384C6.26644 16.4614 5.09731 17.0699 3.84687 17.4291C2.59643 17.7883 1.28921 17.891 0 17.7316C2.25183 19.2136 4.87192 19.9997 7.54752 19.9961" fill="#1DA1F2"/>
</svg>
