<svg width="24" height="18" viewBox="0 0 24 18" fill="none" xmlns="http://www.w3.org/2000/svg">
<path d="M23.4982 2.81032C23.3625 2.2668 23.0951 1.77074 22.7227 1.37179C22.3503 0.972852 21.8861 0.685017 21.3764 0.537097C19.5 6.34501e-08 12 0 12 0C12 0 4.5 6.34501e-08 2.62364 0.537097C2.11393 0.685017 1.64966 0.972852 1.27729 1.37179C0.904916 1.77074 0.637506 2.2668 0.501818 2.81032C5.96046e-08 4.81645 0 9 0 9C0 9 5.96046e-08 13.1835 0.501818 15.1897C0.637506 15.7332 0.904916 16.2293 1.27729 16.6282C1.64966 17.0271 2.11393 17.315 2.62364 17.4629C4.5 18 12 18 12 18C12 18 19.5 18 21.3764 17.4629C21.8861 17.315 22.3503 17.0271 22.7227 16.6282C23.0951 16.2293 23.3625 15.7332 23.4982 15.1897C24 13.1835 24 9 24 9C24 9 24 4.81645 23.4982 2.81032Z" fill="#FF0302"/>
<path d="M9 13V5L17 9L9 13Z" fill="#FEFEFE"/>
</svg>
