<svg width="633" height="73" viewBox="0 0 633 73" fill="none" xmlns="http://www.w3.org/2000/svg">
<g clip-path="url(#clip0_100_98)">
<path d="M404.35 17.77L405.84 8.85995C405.853 8.78537 405.85 8.70882 405.83 8.63567C405.811 8.56251 405.775 8.49451 405.727 8.43641C405.678 8.37831 405.618 8.33153 405.549 8.29932C405.48 8.26712 405.406 8.25027 405.33 8.24995H379.95C379.57 8.24995 379.35 8.43662 379.29 8.80995L377.99 16.53C377.93 16.87 377.73 17.06 377.39 17.1L371.85 17.84C371.658 17.8658 371.464 17.8153 371.308 17.6994C371.153 17.5835 371.05 17.4114 371.02 17.22C368.55 0.589953 345.34 3.19995 344.43 18.64C344.425 18.7189 344.402 18.7957 344.363 18.8642C344.323 18.9327 344.268 18.9911 344.202 19.0347C344.136 19.0784 344.061 19.1061 343.983 19.1157C343.904 19.1253 343.825 19.1165 343.75 19.09C334.85 15.99 326.573 17.0266 318.92 22.2C318.607 22.4066 318.287 22.4166 317.96 22.23C316.28 21.23 314.66 19.82 312.95 19.19C304.283 15.9966 296 16.8666 288.1 21.8C287.78 22.0066 287.48 21.9766 287.2 21.71C284.48 19.1566 281.24 17.7266 277.48 17.42C277.04 17.38 276.857 17.1433 276.93 16.71L278.19 8.75995C278.243 8.41995 278.1 8.24995 277.76 8.24995H252.75C252.243 8.24995 251.95 8.49662 251.87 8.98995L250.46 17.78C250.437 17.9233 250.381 18.0594 250.297 18.1781C250.214 18.2968 250.104 18.395 249.977 18.4653C249.85 18.5356 249.709 18.5761 249.564 18.5838C249.419 18.5916 249.274 18.5663 249.14 18.51C244.29 16.45 235.24 17.5 229.83 17.49C229.497 17.49 229.3 17.3233 229.24 16.99C226.43 0.909953 206.05 2.88995 202.56 17.88C202.546 17.9408 202.52 17.9982 202.483 18.0489C202.447 18.0996 202.4 18.1424 202.346 18.175C202.292 18.2076 202.232 18.2292 202.169 18.2387C202.106 18.2481 202.042 18.2451 201.98 18.23C197.08 16.9433 192.26 17.1466 187.52 18.84C187.213 18.9466 186.91 18.94 186.61 18.82C184.51 17.9466 183.137 17.51 182.49 17.51C173.517 17.4966 164.53 17.4966 155.53 17.51C155.083 17.51 154.833 17.73 154.78 18.17L154.71 18.88C154.663 19.34 154.423 19.4866 153.99 19.32C149.37 17.5333 144.613 16.98 139.72 17.66C137.27 18 135.15 17.29 132.61 17.62C132.531 17.6302 132.45 17.6216 132.375 17.595C132.299 17.5683 132.23 17.5242 132.174 17.4662C132.118 17.4081 132.076 17.3377 132.051 17.2603C132.026 17.1829 132.019 17.1007 132.03 17.02L132.79 11.85C132.81 11.7135 132.801 11.5743 132.762 11.4419C132.724 11.3094 132.657 11.1869 132.567 11.0825C132.477 10.9781 132.365 10.8944 132.24 10.837C132.114 10.7796 131.978 10.7499 131.84 10.75H106.99C106.829 10.7502 106.673 10.8076 106.55 10.912C106.428 11.0164 106.346 11.161 106.32 11.32L105.5 16.49C105.367 17.37 104.867 17.71 104 17.51C102.927 17.27 102.077 17.4833 101.45 18.15C101.183 18.43 100.863 18.52 100.49 18.42C94.9033 16.96 89.3333 17.0466 83.78 18.68C83.46 18.7733 83.14 18.77 82.82 18.67C77.17 16.89 71.9 17.81 66.11 17.45C65.7033 17.4233 65.5333 17.21 65.6 16.81L66.91 8.70995C66.9202 8.65417 66.9178 8.59684 66.9029 8.54196C66.8881 8.48708 66.8611 8.43597 66.824 8.39218C66.7869 8.34839 66.7405 8.31298 66.688 8.28842C66.6355 8.26386 66.5781 8.25073 66.52 8.24995H24.21C23.8567 8.24995 23.65 8.42329 23.59 8.76995L14.67 62.53C14.59 63.01 14.7967 63.25 15.29 63.25H40.57C40.744 63.2503 40.9125 63.1894 41.046 63.0778C41.1795 62.9662 41.2694 62.8112 41.3 62.64L43.68 48.84C43.7533 48.4333 43.9933 48.2333 44.4 48.24L46.11 48.27C46.53 48.2766 46.7067 48.4866 46.64 48.9L44.5 62.48C44.42 63 44.6433 63.26 45.17 63.26L70.05 63.25C70.2568 63.2472 70.4562 63.1742 70.6146 63.0431C70.7731 62.9119 70.8809 62.7307 70.92 62.53L71.74 58.24C71.84 57.7133 72.0933 57.6266 72.5 57.98C81.44 65.77 93.92 65.31 103.59 58.92C103.883 58.7333 104.157 58.7566 104.41 58.99C110.85 64.9 120.26 64.41 127.97 61.61C128.283 61.4966 128.593 61.5 128.9 61.62C136.56 64.57 142.78 63.2 149.88 63.21C195.507 63.2566 241.13 63.27 286.75 63.25C289.1 63.25 292.02 63.79 294.44 63.64C302.14 63.1733 309.857 63.0866 317.59 63.38C318.03 63.4 318.25 63.1866 318.25 62.74V62.02C318.25 61.5533 318.467 61.4033 318.9 61.57C327.04 64.68 332.8 62.99 340.8 63.16C348.18 63.3133 355.567 63.3266 362.96 63.2C363.3 63.1933 363.56 63.0433 363.74 62.75L363.97 62.36C364.143 62.0666 364.39 61.9833 364.71 62.11C367.47 63.25 370.063 63.7633 372.49 63.65C385.61 63.05 397.78 63.63 410.14 63.33C415.287 63.2033 420.433 63.2066 425.58 63.34C426.027 63.3466 426.42 63.27 426.76 63.11C427.073 62.9633 427.36 62.77 427.62 62.53C427.887 62.2833 428.193 62.2166 428.54 62.33C438.53 65.55 449.32 61.47 458.89 63.4C459.537 63.5333 460.187 63.09 460.84 62.07C461.053 61.7233 461.353 61.62 461.74 61.76C469.893 64.84 477.79 64.3433 485.43 60.27C485.559 60.2013 485.703 60.1704 485.847 60.1811C485.991 60.1917 486.127 60.2434 486.24 60.33C492.513 65.0433 498.67 64.9366 504.71 60.01C504.977 59.79 505.26 59.7666 505.56 59.94C515.38 65.4533 524.95 65.07 534.27 58.79C534.61 58.5633 534.943 58.57 535.27 58.81C541.957 63.77 549.37 65.0166 557.51 62.55C557.633 62.5122 557.764 62.5007 557.893 62.5161C558.022 62.5316 558.147 62.5738 558.26 62.64C558.92 63.0266 560.003 63.22 561.51 63.22C580.263 63.2866 599.047 63.2866 617.86 63.22C618.22 63.22 618.43 63.0433 618.49 62.69C619.723 55.8633 620.893 49.0333 622 42.2C622.98 36.1666 623.187 31.86 622.62 29.28C620.15 18.01 608.39 15.44 598.64 18.95C598.313 19.0633 597.997 19.0433 597.69 18.89C595.73 17.9033 594.25 17.42 593.25 17.44C584.443 17.6666 575.627 17.6833 566.8 17.49C566.36 17.4766 566.113 17.6866 566.06 18.12L565.9 19.24C565.853 19.6066 565.657 19.72 565.31 19.58C555.937 15.8533 547.157 16.7733 538.97 22.34C538.697 22.5333 538.427 22.5266 538.16 22.32C523.85 11.36 504.12 19.1 499.18 35.92C499.027 36.44 498.81 36.7866 498.53 36.96C498.07 37.24 497.59 37.16 497.09 36.72C496.833 36.4887 496.672 36.171 496.64 35.83C495.22 20.23 482.28 14.83 468.39 18.51C467.963 18.6233 467.787 18.4633 467.86 18.03L469.41 8.72995C469.463 8.40995 469.327 8.24995 469 8.24995H443.42C443.027 8.24995 442.803 8.44329 442.75 8.82995L441.55 16.56C441.49 16.9666 441.253 17.1766 440.84 17.19C435.833 17.3366 431.37 18.9366 427.45 21.99C427.17 22.21 426.89 22.21 426.61 21.99C420.3 16.88 412.42 16.75 404.74 18.16C404.427 18.2133 404.297 18.0833 404.35 17.77Z" stroke="#0F0F0F" stroke-width="2"/>
<path d="M220.127 16.416C219.616 15.4711 218.685 14.8035 217.539 14.56C216.392 14.3164 215.124 14.5169 214.014 15.1174C213.464 15.4147 212.969 15.8012 212.558 16.255C212.147 16.7087 211.827 17.2207 211.617 17.7617C211.407 18.3028 211.311 18.8623 211.334 19.4083C211.358 19.9543 211.5 20.4761 211.753 20.944C212.264 21.8888 213.195 22.5565 214.341 22.8C215.488 23.0435 216.756 22.843 217.866 22.2426C218.416 21.9453 218.911 21.5587 219.322 21.105C219.733 20.6513 220.053 20.1393 220.263 19.5982C220.473 19.0572 220.569 18.4977 220.546 17.9517C220.522 17.4056 220.38 16.8838 220.127 16.416Z" stroke="#808080" stroke-width="2"/>
<path d="M361.864 16.4667C361.355 15.5145 360.429 14.8356 359.289 14.5792C358.148 14.3228 356.887 14.51 355.783 15.0996C355.236 15.3916 354.744 15.7735 354.336 16.2237C353.927 16.6739 353.609 17.1834 353.4 17.7232C353.192 18.2631 353.096 18.8226 353.12 19.3699C353.143 19.9173 353.285 20.4416 353.536 20.9131C354.045 21.8653 354.971 22.5443 356.111 22.8006C357.252 23.057 358.513 22.8698 359.617 22.2802C360.164 21.9883 360.656 21.6063 361.064 21.1561C361.473 20.706 361.791 20.1964 362 19.6566C362.208 19.1168 362.304 18.5572 362.28 18.0099C362.257 17.4626 362.115 16.9382 361.864 16.4667Z" stroke="#808080" stroke-width="2"/>
<path d="M38.02 32C37.9681 31.9993 37.9169 31.9873 37.87 31.965C37.8232 31.9426 37.7817 31.9104 37.7484 31.8705C37.7152 31.8306 37.6909 31.784 37.6774 31.7338C37.6639 31.6837 37.6613 31.6312 37.67 31.58L38.81 24.55C38.8243 24.4653 38.8685 24.3884 38.9345 24.3334C39.0005 24.2784 39.0841 24.2488 39.17 24.25H55.24C55.326 24.2512 55.4095 24.2216 55.4755 24.1666C55.5415 24.1116 55.5857 24.0347 55.6 23.95L56.65 17.44C56.6587 17.3888 56.6561 17.3363 56.6426 17.2862C56.6291 17.236 56.6049 17.1894 56.5716 17.1495C56.5384 17.1096 56.4969 17.0774 56.45 17.055C56.4031 17.0327 56.3519 17.0207 56.3 17.02L31.31 16.96C31.2241 16.9588 31.1405 16.9884 31.0745 17.0434C31.0085 17.0984 30.9643 17.1753 30.95 17.26L24.88 54.12C24.8713 54.1712 24.8739 54.2237 24.8874 54.2738C24.9009 54.324 24.9252 54.3706 24.9584 54.4105C24.9917 54.4504 25.0332 54.4826 25.08 54.505C25.1269 54.5273 25.1781 54.5393 25.23 54.54H33.57C33.6559 54.5412 33.7395 54.5116 33.8055 54.4566C33.8715 54.4016 33.9157 54.3247 33.93 54.24L36.35 39.55C36.3643 39.4652 36.4085 39.3884 36.4745 39.3334C36.5405 39.2784 36.6241 39.2488 36.71 39.25H51.02C51.1042 39.2488 51.1854 39.2182 51.2493 39.1634C51.3133 39.1086 51.356 39.033 51.37 38.95L52.53 32.42C52.5388 32.368 52.5361 32.3146 52.522 32.2638C52.5079 32.2129 52.4827 32.1658 52.4484 32.1257C52.414 32.0856 52.3713 32.0536 52.3232 32.0319C52.2751 32.0101 52.2228 31.9993 52.17 32H38.02Z" stroke="#808080" stroke-width="2"/>
<path d="M265.72 30.99L267.96 17.47C268.027 17.0966 267.87 16.9133 267.49 16.92L259.92 17.04C259.553 17.0466 259.343 17.23 259.29 17.59L253.28 53.98C253.22 54.3266 253.367 54.5 253.72 54.5H261.7C261.967 54.5 262.12 54.3666 262.16 54.1C262.947 49.0533 263.803 44.02 264.73 39C266.09 31.72 275.33 31.53 274.25 38.01C273.357 43.3366 272.477 48.67 271.61 54.01C271.557 54.3366 271.693 54.5 272.02 54.5H279.98C280.3 54.5 280.487 54.34 280.54 54.02C281.293 49.3533 282.053 44.6933 282.82 40.04C283.98 32.97 284.06 25.87 274.98 25.95C271.387 25.9766 268.473 27.7233 266.24 31.19C266.209 31.2519 266.156 31.2999 266.091 31.3249C266.026 31.3498 265.954 31.3498 265.89 31.3249C265.825 31.3 265.772 31.252 265.74 31.1901C265.709 31.1282 265.702 31.0569 265.72 30.99Z" stroke="#808080" stroke-width="2"/>
<path d="M384.17 30.54C381.917 26.3733 378.383 25.0667 373.57 26.62C362.1 30.31 357.6 55.1 372.52 54.99C375.753 54.9633 378.453 53.47 380.62 50.51C380.662 50.4585 380.719 50.4217 380.783 50.405C380.847 50.3883 380.915 50.3925 380.976 50.4171C381.038 50.4417 381.09 50.4854 381.125 50.5417C381.159 50.598 381.175 50.664 381.17 50.73L380.73 53.96C380.683 54.32 380.843 54.5 381.21 54.5H388.98C389.293 54.5 389.477 54.3433 389.53 54.03L395.54 17.62C395.6 17.24 395.437 17.0467 395.05 17.04L387.3 16.92C386.947 16.9133 386.74 17.0833 386.68 17.43L384.48 30.49C384.427 30.81 384.323 30.8267 384.17 30.54Z" stroke="#808080" stroke-width="2"/>
<path d="M444.8 50.77L444.25 53.93C444.183 54.2833 444.33 54.4633 444.69 54.47L452.53 54.57C452.81 54.5767 452.973 54.44 453.02 54.16L459.14 17.47C459.193 17.1567 459.06 17 458.74 17H450.76C450.44 17 450.253 17.16 450.2 17.48L448.01 30.45C447.998 30.5288 447.96 30.6006 447.902 30.6538C447.844 30.707 447.769 30.7385 447.689 30.7432C447.609 30.7478 447.529 30.7253 447.462 30.6793C447.395 30.6334 447.345 30.5667 447.32 30.49C446.28 27.02 443.13 25.72 439.64 26.08C431.09 26.96 426.98 35.51 426.7 43.23C426.3 54.27 436.55 59.44 444.25 50.51C444.75 49.93 444.933 50.0167 444.8 50.77Z" stroke="#808080" stroke-width="2"/>
<path d="M121.64 25.9L122.59 20.1C122.601 20.0262 122.597 19.9507 122.577 19.8788C122.556 19.8069 122.521 19.7402 122.472 19.6832C122.424 19.6263 122.364 19.5804 122.296 19.5488C122.228 19.5172 122.155 19.5005 122.08 19.5H114.21C113.89 19.5 113.703 19.6567 113.65 19.97L112.7 25.94C112.64 26.3133 112.423 26.5 112.05 26.5H109.32C109.02 26.5 108.85 26.6467 108.81 26.94L107.96 32.44C107.907 32.8133 108.07 33 108.45 33H110.97C111.045 33.0005 111.118 33.0172 111.186 33.0488C111.254 33.0804 111.314 33.1263 111.362 33.1832C111.411 33.2402 111.446 33.3069 111.467 33.3788C111.487 33.4507 111.491 33.5262 111.48 33.6C110.693 38.1467 109.93 42.69 109.19 47.23C107.89 55.13 116.72 55.91 122.21 54.1C122.45 54.02 122.567 53.8533 122.56 53.6L122.34 48.31C122.32 47.8367 122.087 47.6767 121.64 47.83C120.533 48.2033 119.537 48.0333 118.65 47.32C118.52 47.2171 118.42 47.0803 118.36 46.9238C118.3 46.7674 118.283 46.5969 118.31 46.43L120.33 33.57C120.39 33.19 120.61 33 120.99 33H125C125.387 33 125.613 32.81 125.68 32.43L126.54 27.1C126.607 26.6933 126.437 26.49 126.03 26.49H122.14C121.74 26.49 121.573 26.2933 121.64 25.9Z" stroke="#808080" stroke-width="2"/>
<path d="M67.66 31.1399C67.633 31.1911 67.5891 31.2313 67.5358 31.2537C67.4824 31.2761 67.423 31.2793 67.3676 31.2628C67.3121 31.2463 67.2641 31.2111 67.2317 31.1631C67.1994 31.1152 67.1846 31.0575 67.19 30.9999L67.77 27.0799C67.8233 26.6933 67.6533 26.4999 67.26 26.4999H59.77C59.41 26.4999 59.2 26.6766 59.14 27.0299L54.69 53.9499C54.6233 54.3566 54.7967 54.5566 55.21 54.5499L63.01 54.4799C63.3833 54.4733 63.5967 54.2866 63.65 53.9199C64.1833 50.3199 64.7533 46.7166 65.36 43.1099C66.41 36.8199 68.09 32.1899 75.49 33.9399C75.8567 34.0266 76.07 33.8866 76.13 33.5199L77.27 26.7499C77.2857 26.6647 77.2833 26.577 77.263 26.4927C77.2427 26.4085 77.2049 26.3294 77.1521 26.2606C77.0994 26.1918 77.0327 26.1348 76.9566 26.0934C76.8804 26.0519 76.7964 26.0269 76.71 26.0199C72.4633 25.6599 69.4467 27.3666 67.66 31.1399Z" stroke="#808080" stroke-width="2"/>
<path d="M80.44 53.06C87.84 57.09 98.47 55.01 102.5 46.87C102.541 46.7872 102.561 46.6955 102.557 46.6031C102.554 46.5106 102.527 46.4203 102.48 46.3401C102.432 46.2599 102.365 46.1923 102.285 46.1435C102.205 46.0946 102.114 46.0659 102.02 46.06L95.26 45.7C95.1156 45.6905 94.9712 45.7176 94.8401 45.7788C94.709 45.84 94.5955 45.9333 94.51 46.05C91.57 50.07 84.3 49.69 84.48 43.35C84.4933 43.0033 84.6733 42.8266 85.02 42.82L102.78 42.45C103.153 42.4433 103.387 42.26 103.48 41.9C108.11 23.71 86.96 21.59 79.08 33.08C75.63 38.12 73.71 49.4 80.44 53.06Z" stroke="#808080" stroke-width="2"/>
<path d="M127.93 39.21C122.41 57.6 148.1 59.96 153.92 46.73C154.107 46.3166 153.973 46.1 153.52 46.08L146.72 45.74C146.4 45.72 146.133 45.8333 145.92 46.08C143.4 48.98 140.377 49.3866 136.85 47.3C136.716 47.2173 136.619 47.0806 136.58 46.92L135.87 43.72C135.743 43.1333 135.977 42.8366 136.57 42.83L154.02 42.46C154.473 42.4533 154.763 42.2333 154.89 41.8C156.76 35.57 154.68 27.5 147.4 26.43C137.42 24.9566 130.93 29.2166 127.93 39.21Z" stroke="#808080" stroke-width="2"/>
<path d="M170.14 30.95L170.72 27.03C170.729 26.9654 170.724 26.8998 170.705 26.8375C170.687 26.7752 170.656 26.7175 170.615 26.6684C170.573 26.6192 170.522 26.5797 170.464 26.5524C170.406 26.5251 170.344 26.5106 170.28 26.51L162.89 26.47C162.503 26.47 162.28 26.66 162.22 27.04L157.75 53.82C157.677 54.2733 157.867 54.5 158.32 54.5H166C166.153 54.4998 166.301 54.4456 166.419 54.3468C166.536 54.248 166.614 54.111 166.64 53.96C167.513 48.8666 168.41 43.78 169.33 38.7C170.05 34.75 171.87 32.22 176.23 33.72C176.395 33.7787 176.543 33.8742 176.665 33.9991C176.786 34.1239 176.877 34.2748 176.93 34.44C178.24 38.47 175.38 49.47 174.63 54.03C174.577 54.3433 174.71 54.5 175.03 54.5H182.7C182.98 54.5 183.143 54.3633 183.19 54.09C184.01 49.07 184.857 44.0533 185.73 39.04C186.05 37.2 186.443 35.93 186.91 35.23C188.97 32.17 194.79 32.84 193.98 37.26C192.967 42.78 192.03 48.3466 191.17 53.96C191.11 54.36 191.283 54.5566 191.69 54.55L199.5 54.48C199.793 54.4733 199.967 54.3266 200.02 54.04C200.973 48.6266 201.877 43.2066 202.73 37.78C203.64 32.03 203.39 26.56 196.51 25.96C192.363 25.5933 189.083 27.2633 186.67 30.97C186.503 31.2166 186.357 31.2066 186.23 30.94C183.603 25.5733 179.41 24.49 173.65 27.69C172.35 28.4166 171.407 29.5633 170.82 31.13C170.796 31.2201 170.737 31.2971 170.657 31.344C170.576 31.3909 170.48 31.4038 170.39 31.38C170.3 31.3561 170.223 31.2974 170.176 31.2167C170.129 31.1361 170.116 31.0401 170.14 30.95Z" stroke="#808080" stroke-width="2"/>
<path d="M232.71 30.99L233.45 27.01C233.51 26.67 233.367 26.5 233.02 26.5H225.63C225.203 26.5 224.953 26.7133 224.88 27.14L220.42 54.01C220.367 54.3566 220.513 54.5266 220.86 54.52L228.74 54.49C229.087 54.49 229.29 54.32 229.35 53.98C230.203 48.92 231.047 43.87 231.88 38.83C233.06 31.76 242.87 30.31 240.96 40.76C240.173 45.0733 239.433 49.4466 238.74 53.88C238.673 54.2933 238.85 54.5 239.27 54.5H246.96C247.333 54.5 247.55 54.3166 247.61 53.95C248.517 48.8633 249.367 43.77 250.16 38.67C251.15 32.27 250.51 26.14 242.76 25.95C238.84 25.8566 235.643 27.6 233.17 31.18C233.141 31.2349 233.092 31.277 233.034 31.298C232.975 31.3191 232.911 31.3176 232.854 31.2939C232.796 31.2701 232.75 31.2259 232.723 31.1697C232.697 31.1135 232.692 31.0494 232.71 30.99Z" stroke="#808080" stroke-width="2"/>
<path d="M302.81 51.29L302.5 53.97C302.46 54.3233 302.617 54.5 302.97 54.5H310.24C310.64 54.5 310.87 54.3033 310.93 53.91C311.823 48.49 312.743 43.07 313.69 37.65C314.183 34.8033 314.173 32.7033 313.66 31.35C311.37 25.34 302.01 25.28 297.01 27.02C293.35 28.2933 290.763 30.6966 289.25 34.23C289.217 34.3068 289.204 34.3906 289.211 34.4738C289.218 34.557 289.246 34.6373 289.291 34.7074C289.337 34.7775 289.398 34.8354 289.472 34.8759C289.545 34.9165 289.626 34.9385 289.71 34.94L296.69 35.15C296.836 35.1527 296.981 35.1182 297.109 35.0499C297.237 34.9815 297.344 34.8817 297.42 34.76C298.84 32.5133 300.903 31.8 303.61 32.62C304.132 32.7762 304.577 33.1203 304.86 33.5858C305.142 34.0513 305.242 34.6051 305.14 35.14C304.92 36.3066 304.12 37 302.74 37.22C297.26 38.08 290.35 38.05 287.32 43.34C280.71 54.87 296.32 58.51 302.43 51.13C302.743 50.75 302.87 50.8033 302.81 51.29Z" stroke="#808080" stroke-width="2"/>
<path d="M332 47.99C321.75 49.8 327.73 28.09 335.64 33.56C336.73 34.32 337 35.52 337.19 36.76C337.237 37.0866 337.423 37.25 337.75 37.25H344.96C345.2 37.25 345.333 37.13 345.36 36.89C346.46 27.44 336.94 24.35 329.68 26.52C323.05 28.49 318.64 33.89 317.65 40.7C314.93 59.51 339.59 59.28 344.4 44.08C344.52 43.6933 344.377 43.5 343.97 43.5H336.51C336.352 43.4993 336.199 43.551 336.074 43.6469C335.949 43.7429 335.86 43.8776 335.82 44.03C335.213 46.3233 333.94 47.6433 332 47.99Z" stroke="#808080" stroke-width="2"/>
<path d="M412.07 51.31L411.72 54.05C411.68 54.35 411.81 54.5 412.11 54.5H419.49C419.897 54.5 420.13 54.3 420.19 53.9C421.163 47.8267 422.09 41.7433 422.97 35.65C424.91 22.16 402.37 23.62 398.5 34.33C398.353 34.73 398.493 34.9367 398.92 34.95L405.87 35.12C406.163 35.1267 406.39 35.01 406.55 34.77C407.86 32.79 412.93 30.87 414.19 33.91C414.99 35.84 413.14 37.16 411.41 37.35C405.21 38.04 398.23 38.21 395.68 45.15C391.59 56.29 406.1 57.19 411.75 51.16C412.01 50.8733 412.117 50.9233 412.07 51.31Z" stroke="#808080" stroke-width="2"/>
<path d="M469.03 42.8199L486.72 42.4499C487.047 42.4433 487.25 42.2799 487.33 41.9599C491.82 23.9899 471.55 21.4999 463.22 32.7199C457.46 40.4799 458.01 54.0599 470.49 54.9199C477.79 55.4199 483.153 52.7233 486.58 46.8299C486.623 46.7541 486.645 46.6686 486.646 46.5816C486.646 46.4945 486.624 46.4088 486.582 46.3327C486.54 46.2565 486.479 46.1923 486.405 46.1464C486.331 46.1004 486.247 46.0741 486.16 46.0699L479.23 45.7099C478.81 45.6899 478.467 45.8399 478.2 46.1599C475.12 49.8899 467.25 49.5899 468.67 43.1199C468.71 42.9266 468.83 42.8266 469.03 42.8199Z" stroke="#808080" stroke-width="2"/>
<path d="M522.97 47.34C520.12 49.05 516.66 48.07 516.17 44.57C515.65 40.8767 516.407 37.7067 518.44 35.06C521.42 31.18 525.41 32.06 526.57 36.87C526.63 37.1233 526.79 37.25 527.05 37.25H534.47C534.803 37.25 534.977 37.0867 534.99 36.76C535.35 29.58 530.69 26.17 523.92 26.09C505.48 25.88 499.26 54.76 518.25 55.07C526.23 55.2033 531.39 51.5733 533.73 44.18C533.877 43.7267 533.713 43.5 533.24 43.5H526.24C525.827 43.5 525.527 43.6833 525.34 44.05C524.7 45.35 524.23 46.59 522.97 47.34Z" stroke="#808080" stroke-width="2"/>
<path d="M541.26 32.7399C535.2 41.0999 536.22 54.3999 549.1 54.9899C557.96 55.3899 564.41 49.7499 566.32 41.3699C570.27 24.1099 549.3 21.6399 541.26 32.7399Z" stroke="#808080" stroke-width="2"/>
<path d="M581.27 31.01L581.84 27.12C581.9 26.7 581.717 26.49 581.29 26.49L574.14 26.5C573.713 26.5067 573.467 26.7167 573.4 27.13L568.95 53.87C568.883 54.2967 569.063 54.51 569.49 54.51L577.24 54.5C577.553 54.5 577.737 54.3433 577.79 54.03C578.837 48.21 579.84 42.3867 580.8 36.56C581.41 32.87 589.64 31.16 588.49 38.03C587.617 43.27 586.71 48.5567 585.77 53.89C585.697 54.2967 585.863 54.5 586.27 54.5L593.72 54.51C594.107 54.51 594.33 54.32 594.39 53.94C595.27 48.5867 596.197 43.24 597.17 37.9C598.3 31.66 606.09 31.11 604.83 39.08C604.043 44.0267 603.2 48.9867 602.3 53.96C602.24 54.32 602.39 54.5 602.75 54.5L610.51 54.51C610.903 54.51 611.137 54.3133 611.21 53.92C612.183 48.28 613.12 42.64 614.02 37C614.85 31.81 614.34 26.95 608.44 26.07C603.88 25.39 600.317 27.0867 597.75 31.16C597.523 31.5133 597.35 31.49 597.23 31.09C594.79 22.95 585.39 25.55 581.7 31.18C581.668 31.2218 581.624 31.2521 581.573 31.2662C581.523 31.2803 581.469 31.2776 581.42 31.2583C581.372 31.239 581.331 31.2043 581.303 31.1595C581.276 31.1146 581.265 31.0621 581.27 31.01Z" stroke="#808080" stroke-width="2"/>
<path d="M219.06 26.8799C219.067 26.8348 219.065 26.7886 219.052 26.7445C219.04 26.7004 219.019 26.6594 218.989 26.6244C218.96 26.5893 218.923 26.561 218.882 26.5412C218.841 26.5215 218.796 26.5108 218.75 26.5099L210.47 26.4399C210.395 26.4414 210.323 26.4692 210.266 26.5186C210.209 26.5679 210.172 26.6357 210.16 26.7099L205.61 54.1299C205.603 54.176 205.606 54.223 205.618 54.2678C205.631 54.3126 205.654 54.3541 205.684 54.3893C205.715 54.4245 205.752 54.4527 205.795 54.4718C205.837 54.4909 205.883 54.5005 205.93 54.4999H214.21C214.285 54.4985 214.357 54.4707 214.414 54.4213C214.471 54.3719 214.508 54.3042 214.52 54.2299L219.06 26.8799Z" stroke="#808080" stroke-width="2"/>
<path d="M352.25 26.53C352.177 26.5314 352.108 26.5581 352.053 26.6056C351.998 26.6532 351.962 26.7184 351.95 26.79L347.4 54.14C347.393 54.1847 347.395 54.2304 347.408 54.274C347.42 54.3176 347.441 54.358 347.471 54.3923C347.501 54.4266 347.537 54.454 347.579 54.4726C347.62 54.4912 347.665 54.5006 347.71 54.5L356 54.51C356.073 54.5086 356.142 54.4818 356.197 54.4343C356.252 54.3868 356.288 54.3216 356.3 54.25L360.85 26.8C360.857 26.7553 360.855 26.7095 360.842 26.6659C360.83 26.6223 360.809 26.582 360.779 26.5477C360.749 26.5133 360.713 26.4859 360.671 26.4673C360.63 26.4487 360.585 26.4394 360.54 26.44L352.25 26.53Z" stroke="#808080" stroke-width="2"/>
<path d="M499.455 47.2459C499.082 46.793 498.615 46.4247 498.081 46.1622C497.547 45.8998 496.956 45.7482 496.342 45.7161C495.728 45.6841 495.104 45.7722 494.504 45.9755C493.904 46.1787 493.341 46.4932 492.847 46.9008C492.352 47.3084 491.936 47.8013 491.622 48.3513C491.308 48.9012 491.102 49.4975 491.017 50.106C490.931 50.7145 490.967 51.3234 491.123 51.8979C491.279 52.4724 491.551 53.0012 491.924 53.4541C492.298 53.9071 492.765 54.2753 493.299 54.5378C493.833 54.8002 494.424 54.9518 495.038 54.9839C495.652 55.0159 496.276 54.9278 496.876 54.7245C497.476 54.5213 498.039 54.2068 498.533 53.7992C499.028 53.3916 499.444 52.8987 499.758 52.3488C500.072 51.7988 500.278 51.2025 500.363 50.594C500.449 49.9855 500.413 49.3766 500.257 48.8021C500.101 48.2277 499.829 47.6989 499.455 47.2459Z" stroke="#808080" stroke-width="2"/>
<path d="M375.475 47.8658C376.761 48.2687 378.238 47.8769 379.581 46.7767C380.924 45.6765 382.024 43.9579 382.638 41.9991C383.251 40.0403 383.329 38.0017 382.854 36.3317C382.379 34.6617 381.39 33.4971 380.105 33.0942C378.819 32.6913 377.342 33.0831 375.999 34.1833C374.656 35.2835 373.556 37.0021 372.943 38.9609C372.329 40.9197 372.251 42.9584 372.726 44.6284C373.201 46.2983 374.19 47.4629 375.475 47.8658Z" stroke="#808080" stroke-width="2"/>
<path d="M439.067 47.8383C440.36 48.236 441.839 47.839 443.18 46.7346C444.52 45.6303 445.612 43.909 446.214 41.9496C446.513 40.9793 446.682 39.9798 446.713 39.008C446.744 38.0363 446.636 37.1114 446.394 36.286C446.152 35.4607 445.782 34.7512 445.305 34.1979C444.828 33.6447 444.253 33.2586 443.613 33.0617C442.32 32.664 440.841 33.061 439.5 34.1653C438.16 35.2697 437.068 36.9909 436.466 38.9504C436.167 39.9206 435.998 40.9201 435.967 41.8919C435.936 42.8636 436.044 43.7886 436.286 44.6139C436.528 45.4392 436.898 46.1488 437.375 46.702C437.852 47.2552 438.427 47.6413 439.067 47.8383Z" stroke="#808080" stroke-width="2"/>
<path d="M86.22 37.38L96.12 37.12C96.1492 37.12 96.1771 37.1084 96.1978 37.0878C96.2184 37.0672 96.23 37.0392 96.23 37.01V37C96.2143 36.4038 96.0725 35.8168 95.8127 35.2725C95.5529 34.7282 95.1802 34.2373 94.7159 33.8278C94.2516 33.4182 93.7047 33.0981 93.1066 32.8858C92.5085 32.6734 91.8708 32.5729 91.23 32.59L90.87 32.6C89.5773 32.6338 88.3499 33.1435 87.4574 34.0173C86.5649 34.891 86.0803 36.0573 86.11 37.26V37.27C86.11 37.2992 86.1216 37.3272 86.1422 37.3478C86.1628 37.3684 86.1908 37.38 86.22 37.38Z" stroke="#808080" stroke-width="2"/>
<path d="M137.7 37.3799L147.6 37.1199C147.627 37.1199 147.652 37.1094 147.671 37.0906C147.689 37.0719 147.7 37.0464 147.7 37.0199V36.9899C147.684 36.395 147.543 35.8093 147.283 35.2662C147.023 34.7231 146.65 34.2332 146.186 33.8246C145.722 33.416 145.175 33.0967 144.577 32.8848C143.979 32.673 143.341 32.5727 142.7 32.5899L142.36 32.5999C141.067 32.6337 139.84 33.1424 138.947 34.0143C138.055 34.8862 137.57 36.0499 137.6 37.2499V37.2799C137.6 37.3064 137.611 37.3319 137.629 37.3506C137.648 37.3694 137.673 37.3799 137.7 37.3799Z" stroke="#808080" stroke-width="2"/>
<path d="M295.19 45.19C292.32 50.31 303.42 51.1 303.85 42.67C303.87 42.35 303.72 42.2166 303.4 42.27C300.98 42.65 296.42 42.99 295.19 45.19Z" stroke="#808080" stroke-width="2"/>
<path d="M406.54 43.61C403.72 44.36 402.19 48.76 406.18 48.95C410.46 49.15 412.783 47.0067 413.15 42.52C413.177 42.1933 413.03 42.0633 412.71 42.13C410.623 42.5833 408.567 43.0767 406.54 43.61Z" stroke="#808080" stroke-width="2"/>
<path d="M470.11 37.4L479.92 37.09C479.952 37.09 479.982 37.0773 480.005 37.0548C480.027 37.0323 480.04 37.0018 480.04 36.97V36.92C480.001 35.7253 479.454 34.5962 478.521 33.7805C477.587 32.9649 476.342 32.5295 475.06 32.57L474.68 32.58C474.044 32.5995 473.419 32.7355 472.838 32.9803C472.258 33.225 471.735 33.5738 471.298 34.0065C470.862 34.4393 470.521 34.9476 470.294 35.5024C470.068 36.0573 469.961 36.6477 469.98 37.24V37.29C469.981 37.3058 469.986 37.3211 469.993 37.3352C470 37.3493 470.01 37.3618 470.022 37.372C470.034 37.3823 470.048 37.39 470.063 37.3948C470.078 37.3996 470.094 37.4013 470.11 37.4Z" stroke="#808080" stroke-width="2"/>
<path d="M549.987 48.2443C551.263 48.6053 552.719 48.1315 554.034 46.9269C555.35 45.7224 556.417 43.8859 557.001 41.8214C557.29 40.7991 557.452 39.7517 557.478 38.7388C557.503 37.7259 557.392 36.7675 557.15 35.9183C556.907 35.069 556.539 34.3455 556.066 33.7892C555.593 33.2328 555.025 32.8544 554.393 32.6757C553.117 32.3146 551.661 32.7885 550.346 33.993C549.03 35.1975 547.963 37.0341 547.379 39.0986C547.09 40.1208 546.928 41.1683 546.902 42.1811C546.877 43.194 546.988 44.1524 547.23 45.0017C547.473 45.8509 547.841 46.5744 548.314 47.1308C548.787 47.6871 549.356 48.0655 549.987 48.2443Z" stroke="#808080" stroke-width="2"/>
<path d="M404.74 18.16C412.42 16.75 420.3 16.88 426.61 21.99C426.89 22.21 427.17 22.21 427.45 21.99C431.37 18.9366 435.833 17.3366 440.84 17.19C441.253 17.1766 441.49 16.9666 441.55 16.56L442.75 8.82995C442.803 8.44329 443.027 8.24995 443.42 8.24995H469C469.327 8.24995 469.463 8.40995 469.41 8.72995L467.86 18.03C467.787 18.4633 467.963 18.6233 468.39 18.51C482.28 14.83 495.22 20.23 496.64 35.83C496.672 36.171 496.833 36.4887 497.09 36.72C497.59 37.16 498.07 37.24 498.53 36.96C498.81 36.7866 499.027 36.44 499.18 35.92C504.12 19.1 523.85 11.36 538.16 22.32C538.427 22.5266 538.697 22.5333 538.97 22.34C547.157 16.7733 555.937 15.8533 565.31 19.58C565.657 19.72 565.853 19.6066 565.9 19.24L566.06 18.12C566.113 17.6866 566.36 17.4766 566.8 17.49C575.627 17.6833 584.443 17.6666 593.25 17.44C594.25 17.42 595.73 17.9033 597.69 18.89C597.997 19.0433 598.313 19.0633 598.64 18.95C608.39 15.44 620.15 18.01 622.62 29.28C623.187 31.86 622.98 36.1666 622 42.2C620.893 49.0333 619.723 55.8633 618.49 62.69C618.43 63.0433 618.22 63.22 617.86 63.22C599.047 63.2866 580.263 63.2866 561.51 63.22C560.003 63.22 558.92 63.0266 558.26 62.64C558.147 62.5738 558.022 62.5316 557.893 62.5161C557.764 62.5007 557.633 62.5122 557.51 62.55C549.37 65.0166 541.957 63.77 535.27 58.81C534.943 58.57 534.61 58.5633 534.27 58.79C524.95 65.07 515.38 65.4533 505.56 59.94C505.26 59.7666 504.977 59.79 504.71 60.01C498.67 64.9366 492.513 65.0433 486.24 60.33C486.127 60.2434 485.991 60.1917 485.847 60.1811C485.703 60.1704 485.559 60.2013 485.43 60.27C477.79 64.3433 469.893 64.84 461.74 61.76C461.353 61.62 461.053 61.7233 460.84 62.07C460.187 63.09 459.537 63.5333 458.89 63.4C449.32 61.47 438.53 65.55 428.54 62.33C428.193 62.2166 427.887 62.2833 427.62 62.53C427.36 62.77 427.073 62.9633 426.76 63.11C426.42 63.27 426.027 63.3466 425.58 63.34C420.433 63.2066 415.287 63.2033 410.14 63.33C397.78 63.63 385.61 63.05 372.49 63.65C370.063 63.7633 367.47 63.25 364.71 62.11C364.39 61.9833 364.143 62.0666 363.97 62.36L363.74 62.75C363.56 63.0433 363.3 63.1933 362.96 63.2C355.567 63.3266 348.18 63.3133 340.8 63.16C332.8 62.99 327.04 64.68 318.9 61.57C318.467 61.4033 318.25 61.5533 318.25 62.02V62.74C318.25 63.1866 318.03 63.4 317.59 63.38C309.857 63.0866 302.14 63.1733 294.44 63.64C292.02 63.79 289.1 63.25 286.75 63.25C241.13 63.27 195.507 63.2566 149.88 63.21C142.78 63.2 136.56 64.57 128.9 61.62C128.593 61.5 128.283 61.4966 127.97 61.61C120.26 64.41 110.85 64.9 104.41 58.99C104.157 58.7566 103.883 58.7333 103.59 58.92C93.92 65.31 81.44 65.77 72.5 57.98C72.0933 57.6266 71.84 57.7133 71.74 58.24L70.92 62.53C70.8809 62.7307 70.7731 62.9119 70.6146 63.0431C70.4562 63.1742 70.2568 63.2472 70.05 63.25L45.17 63.26C44.6433 63.26 44.42 63 44.5 62.48L46.64 48.9C46.7067 48.4866 46.53 48.2766 46.11 48.27L44.4 48.24C43.9933 48.2333 43.7533 48.4333 43.68 48.84L41.3 62.64C41.2694 62.8112 41.1795 62.9662 41.046 63.0778C40.9125 63.1894 40.744 63.2503 40.57 63.25H15.29C14.7967 63.25 14.59 63.01 14.67 62.53L23.59 8.76995C23.65 8.42329 23.8567 8.24995 24.21 8.24995H66.52C66.5781 8.25073 66.6355 8.26386 66.688 8.28842C66.7405 8.31298 66.7869 8.34839 66.824 8.39218C66.8611 8.43597 66.8881 8.48708 66.9029 8.54196C66.9178 8.59684 66.9202 8.65417 66.91 8.70995L65.6 16.81C65.5333 17.21 65.7033 17.4233 66.11 17.45C71.9 17.81 77.17 16.89 82.82 18.67C83.14 18.77 83.46 18.7733 83.78 18.68C89.3333 17.0466 94.9033 16.96 100.49 18.42C100.863 18.52 101.183 18.43 101.45 18.15C102.077 17.4833 102.927 17.27 104 17.51C104.867 17.71 105.367 17.37 105.5 16.49L106.32 11.32C106.346 11.161 106.428 11.0164 106.55 10.912C106.673 10.8076 106.829 10.7502 106.99 10.75H131.84C131.978 10.7499 132.114 10.7796 132.24 10.837C132.365 10.8944 132.477 10.9781 132.567 11.0825C132.657 11.1869 132.724 11.3094 132.762 11.4419C132.801 11.5743 132.81 11.7135 132.79 11.85L132.03 17.02C132.019 17.1007 132.026 17.1829 132.051 17.2603C132.076 17.3377 132.118 17.4081 132.174 17.4662C132.23 17.5242 132.299 17.5683 132.375 17.595C132.45 17.6216 132.531 17.6302 132.61 17.62C135.15 17.29 137.27 18 139.72 17.66C144.613 16.98 149.37 17.5333 153.99 19.32C154.423 19.4866 154.663 19.34 154.71 18.88L154.78 18.17C154.833 17.73 155.083 17.51 155.53 17.51C164.53 17.4966 173.517 17.4966 182.49 17.51C183.137 17.51 184.51 17.9466 186.61 18.82C186.91 18.94 187.213 18.9466 187.52 18.84C192.26 17.1466 197.08 16.9433 201.98 18.23C202.042 18.2451 202.106 18.2481 202.169 18.2387C202.232 18.2292 202.292 18.2076 202.346 18.175C202.4 18.1424 202.447 18.0996 202.483 18.0489C202.52 17.9982 202.546 17.9408 202.56 17.88C206.05 2.88995 226.43 0.909953 229.24 16.99C229.3 17.3233 229.497 17.49 229.83 17.49C235.24 17.5 244.29 16.45 249.14 18.51C249.274 18.5663 249.419 18.5916 249.564 18.5838C249.709 18.5761 249.85 18.5356 249.977 18.4653C250.104 18.395 250.214 18.2968 250.297 18.1781C250.381 18.0594 250.437 17.9233 250.46 17.78L251.87 8.98995C251.95 8.49662 252.243 8.24995 252.75 8.24995H277.76C278.1 8.24995 278.243 8.41995 278.19 8.75995L276.93 16.71C276.857 17.1433 277.04 17.38 277.48 17.42C281.24 17.7266 284.48 19.1566 287.2 21.71C287.48 21.9766 287.78 22.0066 288.1 21.8C296 16.8666 304.283 15.9966 312.95 19.19C314.66 19.82 316.28 21.23 317.96 22.23C318.287 22.4166 318.607 22.4066 318.92 22.2C326.573 17.0266 334.85 15.99 343.75 19.09C343.825 19.1165 343.904 19.1253 343.983 19.1157C344.061 19.1061 344.136 19.0784 344.202 19.0347C344.268 18.9911 344.323 18.9327 344.363 18.8642C344.402 18.7957 344.425 18.7189 344.43 18.64C345.34 3.19995 368.55 0.589953 371.02 17.22C371.05 17.4114 371.153 17.5835 371.308 17.6994C371.464 17.8153 371.658 17.8658 371.85 17.84L377.39 17.1C377.73 17.06 377.93 16.87 377.99 16.53L379.29 8.80995C379.35 8.43662 379.57 8.24995 379.95 8.24995H405.33C405.406 8.25027 405.48 8.26712 405.549 8.29932C405.618 8.33153 405.678 8.37831 405.727 8.43641C405.775 8.49451 405.811 8.56251 405.83 8.63567C405.85 8.70882 405.853 8.78537 405.84 8.85995L404.35 17.77C404.297 18.0833 404.427 18.2133 404.74 18.16ZM220.127 16.416C219.616 15.4711 218.685 14.8035 217.539 14.5599C216.392 14.3164 215.124 14.5169 214.014 15.1174C213.464 15.4147 212.969 15.8012 212.558 16.2549C212.147 16.7087 211.827 17.2207 211.617 17.7617C211.407 18.3028 211.311 18.8623 211.334 19.4083C211.358 19.9543 211.5 20.4761 211.753 20.944C212.264 21.8888 213.195 22.5564 214.341 22.8C215.488 23.0435 216.756 22.843 217.866 22.2426C218.416 21.9452 218.911 21.5587 219.322 21.105C219.733 20.6512 220.053 20.1392 220.263 19.5982C220.473 19.0571 220.569 18.4976 220.546 17.9516C220.522 17.4056 220.38 16.8838 220.127 16.416ZM361.864 16.4668C361.355 15.5146 360.429 14.8356 359.289 14.5792C358.148 14.3228 356.887 14.51 355.783 15.0997C355.236 15.3916 354.744 15.7736 354.336 16.2237C353.927 16.6739 353.609 17.1834 353.4 17.7233C353.192 18.2631 353.096 18.8227 353.12 19.37C353.143 19.9173 353.285 20.4417 353.536 20.9132C354.045 21.8653 354.971 22.5443 356.111 22.8007C357.252 23.0571 358.513 22.8699 359.617 22.2803C360.164 21.9883 360.656 21.6063 361.064 21.1562C361.473 20.706 361.791 20.1965 362 19.6566C362.208 19.1168 362.304 18.5572 362.28 18.0099C362.257 17.4626 362.115 16.9382 361.864 16.4668ZM38.02 32C37.9681 31.9992 37.9169 31.9873 37.87 31.9649C37.8231 31.9426 37.7817 31.9104 37.7484 31.8705C37.7152 31.8306 37.6909 31.7839 37.6774 31.7338C37.6639 31.6836 37.6613 31.6312 37.67 31.58L38.81 24.55C38.8243 24.4652 38.8685 24.3884 38.9345 24.3334C39.0005 24.2783 39.0841 24.2488 39.17 24.25H55.24C55.3259 24.2512 55.4095 24.2216 55.4755 24.1665C55.5415 24.1115 55.5857 24.0347 55.6 23.95L56.65 17.44C56.6587 17.3887 56.6561 17.3363 56.6426 17.2861C56.6291 17.236 56.6049 17.1894 56.5716 17.1495C56.5384 17.1096 56.4969 17.0773 56.45 17.055C56.4031 17.0326 56.3519 17.0207 56.3 17.02L31.31 16.96C31.2241 16.9588 31.1405 16.9883 31.0745 17.0434C31.0085 17.0984 30.9643 17.1752 30.95 17.26L24.88 54.12C24.8713 54.1712 24.8739 54.2236 24.8874 54.2738C24.9009 54.3239 24.9252 54.3706 24.9584 54.4105C24.9917 54.4504 25.0331 54.4826 25.08 54.5049C25.1269 54.5273 25.1781 54.5392 25.23 54.54H33.57C33.6559 54.5412 33.7395 54.5116 33.8055 54.4566C33.8715 54.4015 33.9157 54.3247 33.93 54.24L36.35 39.55C36.3643 39.4652 36.4085 39.3884 36.4745 39.3334C36.5405 39.2783 36.6241 39.2488 36.71 39.25H51.02C51.1042 39.2488 51.1854 39.2181 51.2493 39.1633C51.3133 39.1085 51.356 39.033 51.37 38.95L52.53 32.42C52.5388 32.3679 52.5361 32.3146 52.5219 32.2637C52.5078 32.2128 52.4827 32.1657 52.4484 32.1256C52.414 32.0856 52.3713 32.0535 52.3232 32.0318C52.2751 32.0101 52.2228 31.9992 52.17 32H38.02ZM265.72 30.99L267.96 17.47C268.027 17.0966 267.87 16.9133 267.49 16.92L259.92 17.04C259.553 17.0466 259.343 17.23 259.29 17.59L253.28 53.98C253.22 54.3266 253.367 54.5 253.72 54.5H261.7C261.967 54.5 262.12 54.3666 262.16 54.1C262.947 49.0533 263.803 44.02 264.73 39C266.09 31.72 275.33 31.53 274.25 38.01C273.357 43.3366 272.477 48.67 271.61 54.01C271.557 54.3366 271.693 54.5 272.02 54.5H279.98C280.3 54.5 280.487 54.34 280.54 54.02C281.293 49.3533 282.053 44.6933 282.82 40.04C283.98 32.97 284.06 25.87 274.98 25.95C271.387 25.9766 268.473 27.7233 266.24 31.19C266.209 31.2518 266.156 31.2999 266.091 31.3248C266.026 31.3498 265.954 31.3498 265.89 31.3249C265.825 31.3 265.772 31.2519 265.74 31.1901C265.709 31.1282 265.702 31.0569 265.72 30.99ZM384.17 30.54C381.917 26.3733 378.383 25.0666 373.57 26.62C362.1 30.31 357.6 55.1 372.52 54.99C375.753 54.9633 378.453 53.47 380.62 50.51C380.662 50.4585 380.719 50.4217 380.783 50.405C380.847 50.3882 380.915 50.3925 380.976 50.4171C381.038 50.4417 381.09 50.4853 381.125 50.5416C381.159 50.5979 381.175 50.6639 381.17 50.73L380.73 53.96C380.683 54.32 380.843 54.5 381.21 54.5H388.98C389.293 54.5 389.477 54.3433 389.53 54.03L395.54 17.62C395.6 17.24 395.437 17.0466 395.05 17.04L387.3 16.92C386.947 16.9133 386.74 17.0833 386.68 17.43L384.48 30.49C384.427 30.81 384.323 30.8266 384.17 30.54ZM444.8 50.77L444.25 53.93C444.183 54.2833 444.33 54.4633 444.69 54.47L452.53 54.57C452.81 54.5766 452.973 54.44 453.02 54.16L459.14 17.47C459.193 17.1566 459.06 17 458.74 17H450.76C450.44 17 450.253 17.16 450.2 17.48L448.01 30.45C447.999 30.5287 447.96 30.6006 447.902 30.6538C447.844 30.707 447.768 30.7385 447.689 30.7431C447.609 30.7477 447.529 30.7253 447.462 30.6793C447.395 30.6333 447.345 30.5666 447.32 30.49C446.28 27.02 443.13 25.72 439.64 26.08C431.09 26.96 426.98 35.51 426.7 43.23C426.3 54.27 436.55 59.44 444.25 50.51C444.75 49.93 444.933 50.0166 444.8 50.77ZM121.64 25.9L122.59 20.1C122.601 20.0261 122.597 19.9507 122.577 19.8787C122.556 19.8068 122.521 19.7401 122.472 19.6832C122.424 19.6262 122.364 19.5804 122.296 19.5488C122.228 19.5171 122.155 19.5005 122.08 19.5H114.21C113.89 19.5 113.703 19.6566 113.65 19.97L112.7 25.94C112.64 26.3133 112.423 26.5 112.05 26.5H109.32C109.02 26.5 108.85 26.6466 108.81 26.94L107.96 32.44C107.907 32.8133 108.07 33 108.45 33H110.97C111.045 33.0005 111.118 33.0172 111.186 33.0488C111.254 33.0804 111.314 33.1262 111.362 33.1832C111.411 33.2401 111.446 33.3068 111.467 33.3787C111.487 33.4507 111.492 33.5261 111.48 33.6C110.693 38.1466 109.93 42.69 109.19 47.23C107.89 55.13 116.72 55.91 122.21 54.1C122.45 54.02 122.567 53.8533 122.56 53.6L122.34 48.31C122.32 47.8366 122.087 47.6766 121.64 47.83C120.533 48.2033 119.537 48.0333 118.65 47.32C118.52 47.217 118.42 47.0803 118.36 46.9238C118.3 46.7673 118.283 46.5968 118.31 46.43L120.33 33.57C120.39 33.19 120.61 33 120.99 33H125C125.387 33 125.613 32.81 125.68 32.43L126.54 27.1C126.607 26.6933 126.437 26.49 126.03 26.49H122.14C121.74 26.49 121.573 26.2933 121.64 25.9ZM67.66 31.14C67.633 31.1911 67.5891 31.2313 67.5358 31.2537C67.4824 31.2761 67.423 31.2794 67.3675 31.2628C67.3121 31.2463 67.2641 31.2111 67.2317 31.1632C67.1994 31.1152 67.1846 31.0575 67.19 31L67.77 27.08C67.8233 26.6933 67.6533 26.5 67.26 26.5H59.77C59.41 26.5 59.2 26.6766 59.14 27.03L54.69 53.95C54.6233 54.3566 54.7967 54.5566 55.21 54.55L63.01 54.48C63.3833 54.4733 63.5967 54.2866 63.65 53.92C64.1833 50.32 64.7533 46.7166 65.36 43.11C66.41 36.82 68.09 32.19 75.49 33.94C75.8567 34.0266 76.07 33.8866 76.13 33.52L77.27 26.75C77.2857 26.6647 77.2833 26.5771 77.263 26.4928C77.2427 26.4085 77.2049 26.3294 77.1521 26.2606C77.0994 26.1918 77.0327 26.1348 76.9566 26.0934C76.8804 26.0519 76.7964 26.0269 76.71 26.02C72.4633 25.66 69.4467 27.3666 67.66 31.14ZM80.44 53.06C87.84 57.09 98.47 55.01 102.5 46.87C102.541 46.7872 102.561 46.6955 102.557 46.6031C102.554 46.5106 102.527 46.4202 102.48 46.34C102.432 46.2599 102.365 46.1923 102.285 46.1434C102.205 46.0946 102.114 46.0659 102.02 46.06L95.26 45.7C95.1156 45.6905 94.9712 45.7176 94.8401 45.7788C94.709 45.84 94.5955 45.9332 94.51 46.05C91.57 50.07 84.3 49.69 84.48 43.35C84.4933 43.0033 84.6733 42.8266 85.02 42.82L102.78 42.45C103.153 42.4433 103.387 42.26 103.48 41.9C108.11 23.71 86.96 21.59 79.08 33.08C75.63 38.12 73.71 49.4 80.44 53.06ZM127.93 39.21C122.41 57.6 148.1 59.96 153.92 46.73C154.107 46.3166 153.973 46.1 153.52 46.08L146.72 45.74C146.4 45.72 146.133 45.8333 145.92 46.08C143.4 48.98 140.377 49.3866 136.85 47.3C136.716 47.2173 136.619 47.0806 136.58 46.92L135.87 43.72C135.743 43.1333 135.977 42.8366 136.57 42.83L154.02 42.46C154.473 42.4533 154.763 42.2333 154.89 41.8C156.76 35.57 154.68 27.5 147.4 26.43C137.42 24.9566 130.93 29.2166 127.93 39.21ZM170.14 30.95L170.72 27.03C170.729 26.9654 170.724 26.8998 170.705 26.8375C170.687 26.7751 170.656 26.7175 170.615 26.6683C170.573 26.6192 170.522 26.5797 170.464 26.5524C170.406 26.5251 170.344 26.5106 170.28 26.51L162.89 26.47C162.503 26.47 162.28 26.66 162.22 27.04L157.75 53.82C157.677 54.2733 157.867 54.5 158.32 54.5H166C166.153 54.4998 166.301 54.4455 166.419 54.3467C166.536 54.2479 166.614 54.111 166.64 53.96C167.513 48.8666 168.41 43.78 169.33 38.7C170.05 34.75 171.87 32.22 176.23 33.72C176.395 33.7787 176.543 33.8742 176.665 33.9991C176.786 34.1239 176.877 34.2748 176.93 34.44C178.24 38.47 175.38 49.47 174.63 54.03C174.577 54.3433 174.71 54.5 175.03 54.5H182.7C182.98 54.5 183.143 54.3633 183.19 54.09C184.01 49.07 184.857 44.0533 185.73 39.04C186.05 37.2 186.443 35.93 186.91 35.23C188.97 32.17 194.79 32.84 193.98 37.26C192.967 42.78 192.03 48.3466 191.17 53.96C191.11 54.36 191.283 54.5566 191.69 54.55L199.5 54.48C199.793 54.4733 199.967 54.3266 200.02 54.04C200.973 48.6266 201.877 43.2066 202.73 37.78C203.64 32.03 203.39 26.56 196.51 25.96C192.363 25.5933 189.083 27.2633 186.67 30.97C186.503 31.2166 186.357 31.2066 186.23 30.94C183.603 25.5733 179.41 24.49 173.65 27.69C172.35 28.4166 171.407 29.5633 170.82 31.13C170.796 31.2201 170.737 31.2971 170.657 31.344C170.576 31.3909 170.48 31.4038 170.39 31.38C170.3 31.3561 170.223 31.2974 170.176 31.2167C170.129 31.1361 170.116 31.0401 170.14 30.95ZM232.71 30.99L233.45 27.01C233.51 26.67 233.367 26.5 233.02 26.5H225.63C225.203 26.5 224.953 26.7133 224.88 27.14L220.42 54.01C220.367 54.3566 220.513 54.5266 220.86 54.52L228.74 54.49C229.087 54.49 229.29 54.32 229.35 53.98C230.203 48.92 231.047 43.87 231.88 38.83C233.06 31.76 242.87 30.31 240.96 40.76C240.173 45.0733 239.433 49.4466 238.74 53.88C238.673 54.2933 238.85 54.5 239.27 54.5H246.96C247.333 54.5 247.55 54.3166 247.61 53.95C248.517 48.8633 249.367 43.77 250.16 38.67C251.15 32.27 250.51 26.14 242.76 25.95C238.84 25.8566 235.643 27.6 233.17 31.18C233.141 31.2349 233.092 31.2769 233.034 31.298C232.975 31.3191 232.911 31.3176 232.854 31.2939C232.796 31.2701 232.75 31.2259 232.723 31.1697C232.697 31.1135 232.692 31.0494 232.71 30.99ZM302.81 51.29L302.5 53.97C302.46 54.3233 302.617 54.5 302.97 54.5H310.24C310.64 54.5 310.87 54.3033 310.93 53.91C311.823 48.49 312.743 43.07 313.69 37.65C314.183 34.8033 314.173 32.7033 313.66 31.35C311.37 25.34 302.01 25.28 297.01 27.02C293.35 28.2933 290.763 30.6966 289.25 34.23C289.217 34.3068 289.204 34.3905 289.211 34.4738C289.218 34.557 289.246 34.6372 289.291 34.7073C289.337 34.7775 289.398 34.8353 289.472 34.8759C289.545 34.9165 289.626 34.9385 289.71 34.94L296.69 35.15C296.836 35.1527 296.981 35.1182 297.109 35.0499C297.237 34.9815 297.344 34.8816 297.42 34.76C298.84 32.5133 300.903 31.8 303.61 32.62C304.132 32.7761 304.577 33.1203 304.86 33.5858C305.142 34.0513 305.242 34.605 305.14 35.14C304.92 36.3066 304.12 37 302.74 37.22C297.26 38.08 290.35 38.05 287.32 43.34C280.71 54.87 296.32 58.51 302.43 51.13C302.743 50.75 302.87 50.8033 302.81 51.29ZM332 47.99C321.75 49.8 327.73 28.09 335.64 33.56C336.73 34.32 337 35.52 337.19 36.76C337.237 37.0866 337.423 37.25 337.75 37.25H344.96C345.2 37.25 345.333 37.13 345.36 36.89C346.46 27.44 336.94 24.35 329.68 26.52C323.05 28.49 318.64 33.89 317.65 40.7C314.93 59.51 339.59 59.28 344.4 44.08C344.52 43.6933 344.377 43.5 343.97 43.5H336.51C336.353 43.4992 336.199 43.5509 336.074 43.6469C335.949 43.7428 335.86 43.8776 335.82 44.03C335.213 46.3233 333.94 47.6433 332 47.99ZM412.07 51.31L411.72 54.05C411.68 54.35 411.81 54.5 412.11 54.5H419.49C419.897 54.5 420.13 54.3 420.19 53.9C421.163 47.8266 422.09 41.7433 422.97 35.65C424.91 22.16 402.37 23.62 398.5 34.33C398.353 34.73 398.493 34.9366 398.92 34.95L405.87 35.12C406.163 35.1266 406.39 35.01 406.55 34.77C407.86 32.79 412.93 30.87 414.19 33.91C414.99 35.84 413.14 37.16 411.41 37.35C405.21 38.04 398.23 38.21 395.68 45.15C391.59 56.29 406.1 57.19 411.75 51.16C412.01 50.8733 412.117 50.9233 412.07 51.31ZM469.03 42.82L486.72 42.45C487.047 42.4433 487.25 42.28 487.33 41.96C491.82 23.99 471.55 21.5 463.22 32.72C457.46 40.48 458.01 54.06 470.49 54.92C477.79 55.42 483.153 52.7233 486.58 46.83C486.623 46.7541 486.645 46.6687 486.646 46.5816C486.646 46.4946 486.624 46.4089 486.582 46.3327C486.54 46.2565 486.479 46.1924 486.405 46.1464C486.331 46.1004 486.247 46.0741 486.16 46.07L479.23 45.71C478.81 45.69 478.467 45.84 478.2 46.16C475.12 49.89 467.25 49.59 468.67 43.12C468.71 42.9266 468.83 42.8266 469.03 42.82ZM522.97 47.34C520.12 49.05 516.66 48.07 516.17 44.57C515.65 40.8766 516.407 37.7066 518.44 35.06C521.42 31.18 525.41 32.06 526.57 36.87C526.63 37.1233 526.79 37.25 527.05 37.25H534.47C534.803 37.25 534.977 37.0866 534.99 36.76C535.35 29.58 530.69 26.17 523.92 26.09C505.48 25.88 499.26 54.76 518.25 55.07C526.23 55.2033 531.39 51.5733 533.73 44.18C533.877 43.7266 533.713 43.5 533.24 43.5H526.24C525.827 43.5 525.527 43.6833 525.34 44.05C524.7 45.35 524.23 46.59 522.97 47.34ZM541.26 32.74C535.2 41.1 536.22 54.4 549.1 54.99C557.96 55.39 564.41 49.75 566.32 41.37C570.27 24.11 549.3 21.64 541.26 32.74ZM581.27 31.01L581.84 27.12C581.9 26.7 581.717 26.49 581.29 26.49L574.14 26.5C573.713 26.5066 573.467 26.7166 573.4 27.13L568.95 53.87C568.883 54.2966 569.063 54.51 569.49 54.51L577.24 54.5C577.553 54.5 577.737 54.3433 577.79 54.03C578.837 48.21 579.84 42.3866 580.8 36.56C581.41 32.87 589.64 31.16 588.49 38.03C587.617 43.27 586.71 48.5566 585.77 53.89C585.697 54.2966 585.863 54.5 586.27 54.5L593.72 54.51C594.107 54.51 594.33 54.32 594.39 53.94C595.27 48.5866 596.197 43.24 597.17 37.9C598.3 31.66 606.09 31.11 604.83 39.08C604.043 44.0266 603.2 48.9866 602.3 53.96C602.24 54.32 602.39 54.5 602.75 54.5L610.51 54.51C610.903 54.51 611.137 54.3133 611.21 53.92C612.183 48.28 613.12 42.64 614.02 37C614.85 31.81 614.34 26.95 608.44 26.07C603.88 25.39 600.317 27.0866 597.75 31.16C597.523 31.5133 597.35 31.49 597.23 31.09C594.79 22.95 585.39 25.55 581.7 31.18C581.668 31.2217 581.624 31.252 581.573 31.2662C581.523 31.2803 581.469 31.2775 581.42 31.2582C581.372 31.239 581.331 31.2043 581.303 31.1594C581.276 31.1146 581.265 31.0621 581.27 31.01ZM219.06 26.88C219.067 26.8348 219.065 26.7886 219.052 26.7445C219.04 26.7004 219.019 26.6595 218.989 26.6244C218.96 26.5893 218.923 26.561 218.882 26.5412C218.841 26.5215 218.796 26.5108 218.75 26.51L210.47 26.44C210.395 26.4414 210.323 26.4692 210.266 26.5186C210.209 26.568 210.172 26.6357 210.16 26.71L205.61 54.13C205.603 54.176 205.606 54.223 205.618 54.2678C205.631 54.3126 205.654 54.3541 205.684 54.3893C205.715 54.4245 205.752 54.4527 205.795 54.4718C205.837 54.4909 205.883 54.5005 205.93 54.5H214.21C214.285 54.4985 214.357 54.4707 214.414 54.4213C214.471 54.3719 214.508 54.3042 214.52 54.23L219.06 26.88ZM352.25 26.53C352.177 26.5313 352.108 26.5581 352.053 26.6056C351.998 26.6531 351.962 26.7184 351.95 26.79L347.4 54.14C347.393 54.1846 347.395 54.2304 347.408 54.274C347.42 54.3176 347.441 54.3579 347.471 54.3923C347.501 54.4266 347.537 54.454 347.579 54.4726C347.62 54.4912 347.665 54.5005 347.71 54.5L356 54.51C356.073 54.5086 356.142 54.4818 356.197 54.4343C356.252 54.3868 356.288 54.3215 356.3 54.25L360.85 26.8C360.857 26.7553 360.855 26.7095 360.842 26.6659C360.83 26.6223 360.809 26.582 360.779 26.5476C360.749 26.5133 360.713 26.4859 360.671 26.4673C360.63 26.4487 360.585 26.4394 360.54 26.44L352.25 26.53ZM499.456 47.2459C499.082 46.7929 498.615 46.4247 498.081 46.1622C497.547 45.8997 496.956 45.7481 496.342 45.7161C495.728 45.684 495.104 45.7722 494.504 45.9754C493.904 46.1787 493.341 46.4931 492.847 46.9008C492.352 47.3084 491.936 47.8013 491.622 48.3512C491.308 48.9011 491.102 49.4974 491.017 50.1059C490.931 50.7145 490.967 51.3234 491.123 51.8978C491.279 52.4723 491.551 53.0011 491.924 53.4541C492.298 53.907 492.765 54.2752 493.299 54.5377C493.833 54.8002 494.424 54.9518 495.038 54.9838C495.652 55.0159 496.276 54.9277 496.876 54.7245C497.476 54.5212 498.039 54.2068 498.533 53.7992C499.028 53.3915 499.444 52.8987 499.758 52.3487C500.072 51.7988 500.278 51.2025 500.363 50.594C500.449 49.9854 500.413 49.3765 500.257 48.8021C500.101 48.2276 499.829 47.6988 499.456 47.2459Z" fill="black"/>
<path d="M217.866 22.2425C220.179 20.9922 221.191 18.3835 220.127 16.416C219.063 14.4484 216.326 13.867 214.014 15.1174C211.701 16.3677 210.689 18.9764 211.753 20.9439C212.817 22.9115 215.554 23.4929 217.866 22.2425Z" fill="white"/>
<path d="M359.617 22.2802C361.917 21.0524 362.922 18.4496 361.864 16.4668C360.805 14.4839 358.083 13.8719 355.783 15.0997C353.483 16.3275 352.478 18.9303 353.536 20.9131C354.595 22.896 357.318 23.508 359.617 22.2802Z" fill="white"/>
<path d="M38.02 32H52.17C52.2228 31.9993 52.2751 32.0101 52.3232 32.0319C52.3713 32.0536 52.414 32.0856 52.4484 32.1257C52.4827 32.1658 52.5079 32.2129 52.522 32.2638C52.5361 32.3146 52.5388 32.368 52.53 32.42L51.37 38.95C51.356 39.033 51.3133 39.1086 51.2493 39.1634C51.1854 39.2182 51.1042 39.2488 51.02 39.25H36.71C36.6241 39.2488 36.5405 39.2784 36.4745 39.3334C36.4085 39.3884 36.3643 39.4653 36.35 39.55L33.93 54.24C33.9157 54.3247 33.8715 54.4016 33.8055 54.4566C33.7395 54.5116 33.6559 54.5412 33.57 54.54H25.23C25.1781 54.5393 25.1269 54.5273 25.08 54.505C25.0332 54.4826 24.9917 54.4504 24.9584 54.4105C24.9252 54.3706 24.9009 54.324 24.8874 54.2738C24.8739 54.2237 24.8713 54.1712 24.88 54.12L30.95 17.26C30.9643 17.1753 31.0085 17.0984 31.0745 17.0434C31.1405 16.9884 31.2241 16.9588 31.31 16.96L56.3 17.02C56.3519 17.0207 56.4031 17.0327 56.45 17.055C56.4969 17.0774 56.5384 17.1096 56.5716 17.1495C56.6049 17.1894 56.6291 17.236 56.6426 17.2862C56.6561 17.3363 56.6587 17.3888 56.65 17.44L55.6 23.95C55.5857 24.0347 55.5415 24.1116 55.4755 24.1666C55.4095 24.2216 55.326 24.2512 55.24 24.25H39.17C39.0841 24.2488 39.0005 24.2784 38.9345 24.3334C38.8685 24.3884 38.8243 24.4653 38.81 24.55L37.67 31.58C37.6613 31.6312 37.6639 31.6837 37.6774 31.7338C37.6909 31.784 37.7152 31.8306 37.7484 31.8705C37.7817 31.9104 37.8232 31.9426 37.87 31.965C37.9169 31.9873 37.9681 31.9993 38.02 32Z" fill="white"/>
<path d="M266.24 31.19C268.473 27.7233 271.387 25.9766 274.98 25.95C284.06 25.87 283.98 32.97 282.82 40.04C282.053 44.6933 281.293 49.3533 280.54 54.02C280.487 54.34 280.3 54.5 279.98 54.5H272.02C271.693 54.5 271.557 54.3366 271.61 54.01C272.477 48.67 273.357 43.3366 274.25 38.01C275.33 31.53 266.09 31.72 264.73 39C263.803 44.02 262.947 49.0533 262.16 54.1C262.12 54.3666 261.967 54.5 261.7 54.5H253.72C253.367 54.5 253.22 54.3266 253.28 53.98L259.29 17.59C259.343 17.23 259.553 17.0466 259.92 17.04L267.49 16.92C267.87 16.9133 268.027 17.0966 267.96 17.47L265.72 30.99C265.702 31.0569 265.709 31.1282 265.74 31.1901C265.772 31.252 265.825 31.3 265.89 31.3249C265.954 31.3498 266.026 31.3498 266.091 31.3249C266.156 31.2999 266.209 31.2519 266.24 31.19Z" fill="white"/>
<path d="M384.48 30.49L386.68 17.43C386.74 17.0833 386.947 16.9133 387.3 16.92L395.05 17.04C395.437 17.0467 395.6 17.24 395.54 17.62L389.53 54.03C389.477 54.3433 389.293 54.5 388.98 54.5H381.21C380.843 54.5 380.683 54.32 380.73 53.96L381.17 50.73C381.175 50.664 381.159 50.598 381.125 50.5417C381.09 50.4854 381.038 50.4417 380.976 50.4171C380.915 50.3925 380.847 50.3883 380.783 50.405C380.719 50.4217 380.662 50.4585 380.62 50.51C378.453 53.47 375.753 54.9633 372.52 54.99C357.6 55.1 362.1 30.31 373.57 26.62C378.383 25.0667 381.917 26.3733 384.17 30.54C384.323 30.8267 384.427 30.81 384.48 30.49ZM375.475 47.8658C376.761 48.2687 378.238 47.8769 379.581 46.7767C380.924 45.6765 382.024 43.9579 382.638 41.9991C383.251 40.0403 383.329 38.0016 382.854 36.3316C382.379 34.6617 381.39 33.4971 380.105 33.0942C378.819 32.6913 377.342 33.0831 375.999 34.1833C374.656 35.2835 373.556 37.0021 372.943 38.9609C372.329 40.9197 372.251 42.9583 372.726 44.6283C373.201 46.2983 374.19 47.4629 375.475 47.8658Z" fill="white"/>
<path d="M444.25 50.51C436.55 59.44 426.3 54.27 426.7 43.23C426.98 35.51 431.09 26.96 439.64 26.08C443.13 25.72 446.28 27.02 447.32 30.49C447.345 30.5667 447.395 30.6334 447.462 30.6793C447.529 30.7253 447.609 30.7478 447.689 30.7432C447.769 30.7385 447.844 30.707 447.902 30.6538C447.96 30.6006 447.998 30.5288 448.01 30.45L450.2 17.48C450.253 17.16 450.44 17 450.76 17H458.74C459.06 17 459.193 17.1567 459.14 17.47L453.02 54.16C452.973 54.44 452.81 54.5767 452.53 54.57L444.69 54.47C444.33 54.4633 444.183 54.2833 444.25 53.93L444.8 50.77C444.933 50.0167 444.75 49.93 444.25 50.51ZM439.067 47.8383C440.36 48.236 441.839 47.839 443.18 46.7346C444.52 45.6303 445.612 43.9091 446.215 41.9496C446.513 40.9794 446.682 39.9798 446.713 39.0081C446.744 38.0363 446.636 37.1114 446.394 36.2861C446.152 35.4608 445.782 34.7512 445.305 34.198C444.828 33.6447 444.253 33.2586 443.613 33.0617C442.32 32.664 440.841 33.061 439.5 34.1654C438.16 35.2697 437.068 36.9909 436.466 38.9504C436.167 39.9206 435.998 40.9202 435.967 41.8919C435.936 42.8637 436.044 43.7886 436.286 44.6139C436.528 45.4393 436.898 46.1488 437.375 46.702C437.852 47.2553 438.427 47.6414 439.067 47.8383Z" fill="white"/>
<path d="M122.14 26.49H126.03C126.437 26.49 126.607 26.6933 126.54 27.1L125.68 32.43C125.613 32.81 125.387 33 125 33H120.99C120.61 33 120.39 33.19 120.33 33.57L118.31 46.43C118.283 46.5969 118.3 46.7674 118.36 46.9238C118.42 47.0803 118.52 47.2171 118.65 47.32C119.537 48.0333 120.533 48.2033 121.64 47.83C122.087 47.6767 122.32 47.8367 122.34 48.31L122.56 53.6C122.567 53.8533 122.45 54.02 122.21 54.1C116.72 55.91 107.89 55.13 109.19 47.23C109.93 42.69 110.693 38.1467 111.48 33.6C111.491 33.5262 111.487 33.4507 111.467 33.3788C111.446 33.3069 111.411 33.2402 111.362 33.1832C111.314 33.1263 111.254 33.0804 111.186 33.0488C111.118 33.0172 111.045 33.0005 110.97 33H108.45C108.07 33 107.907 32.8133 107.96 32.44L108.81 26.94C108.85 26.6467 109.02 26.5 109.32 26.5H112.05C112.423 26.5 112.64 26.3133 112.7 25.94L113.65 19.97C113.703 19.6567 113.89 19.5 114.21 19.5H122.08C122.155 19.5005 122.228 19.5172 122.296 19.5488C122.364 19.5804 122.424 19.6263 122.472 19.6832C122.521 19.7402 122.556 19.8069 122.577 19.8788C122.597 19.9507 122.601 20.0262 122.59 20.1L121.64 25.9C121.573 26.2933 121.74 26.49 122.14 26.49Z" fill="white"/>
<path d="M67.66 31.1401C69.4467 27.3667 72.4633 25.6601 76.71 26.0201C76.7964 26.027 76.8804 26.052 76.9566 26.0935C77.0327 26.1349 77.0994 26.1919 77.1521 26.2607C77.2049 26.3295 77.2427 26.4086 77.263 26.4929C77.2833 26.5772 77.2857 26.6648 77.27 26.7501L76.13 33.5201C76.07 33.8867 75.8567 34.0267 75.49 33.9401C68.09 32.1901 66.41 36.8201 65.36 43.1101C64.7533 46.7167 64.1833 50.3201 63.65 53.9201C63.5967 54.2867 63.3833 54.4734 63.01 54.4801L55.21 54.5501C54.7967 54.5567 54.6233 54.3567 54.69 53.9501L59.14 27.0301C59.2 26.6767 59.41 26.5001 59.77 26.5001H67.26C67.6533 26.5001 67.8233 26.6934 67.77 27.0801L67.19 31.0001C67.1846 31.0576 67.1994 31.1153 67.2317 31.1633C67.2641 31.2112 67.3121 31.2464 67.3676 31.2629C67.423 31.2795 67.4824 31.2762 67.5358 31.2538C67.5891 31.2314 67.633 31.1912 67.66 31.1401Z" fill="white"/>
<path d="M80.44 53.06C73.71 49.4 75.63 38.12 79.08 33.08C86.96 21.59 108.11 23.71 103.48 41.9C103.387 42.26 103.153 42.4433 102.78 42.45L85.02 42.82C84.6733 42.8266 84.4933 43.0033 84.48 43.35C84.3 49.69 91.57 50.07 94.51 46.05C94.5955 45.9333 94.709 45.84 94.8401 45.7788C94.9712 45.7176 95.1156 45.6905 95.26 45.7L102.02 46.06C102.114 46.0659 102.205 46.0946 102.285 46.1435C102.365 46.1923 102.432 46.2599 102.48 46.3401C102.527 46.4203 102.554 46.5106 102.557 46.6031C102.561 46.6955 102.541 46.7872 102.5 46.87C98.47 55.01 87.84 57.09 80.44 53.06ZM86.22 37.38L96.12 37.12C96.1492 37.12 96.1772 37.1084 96.1978 37.0877C96.2184 37.0671 96.23 37.0391 96.23 37.01V37C96.2143 36.4038 96.0725 35.8168 95.8127 35.2725C95.5529 34.7282 95.1802 34.2373 94.7159 33.8277C94.2516 33.4182 93.7047 33.0981 93.1066 32.8857C92.5085 32.6733 91.8708 32.5728 91.23 32.59L90.87 32.6C89.5773 32.6337 88.3499 33.1435 87.4574 34.0172C86.5649 34.891 86.0803 36.0573 86.11 37.26V37.27C86.11 37.2991 86.1216 37.3271 86.1422 37.3478C86.1629 37.3684 86.1908 37.38 86.22 37.38Z" fill="white"/>
<path d="M153.92 46.73C148.1 59.96 122.41 57.6 127.93 39.21C130.93 29.2166 137.42 24.9566 147.4 26.43C154.68 27.5 156.76 35.57 154.89 41.8C154.763 42.2333 154.473 42.4533 154.02 42.46L136.57 42.83C135.977 42.8366 135.743 43.1333 135.87 43.72L136.58 46.92C136.619 47.0806 136.716 47.2173 136.85 47.3C140.377 49.3866 143.4 48.98 145.92 46.08C146.133 45.8333 146.4 45.72 146.72 45.74L153.52 46.08C153.973 46.1 154.107 46.3166 153.92 46.73ZM137.7 37.38L147.6 37.12C147.627 37.12 147.652 37.1094 147.671 37.0907C147.689 37.0719 147.7 37.0465 147.7 37.02V36.99C147.684 36.3951 147.543 35.8094 147.283 35.2663C147.023 34.7231 146.65 34.2333 146.186 33.8247C145.722 33.4161 145.175 33.0967 144.577 32.8849C143.979 32.673 143.341 32.5728 142.7 32.59L142.36 32.6C141.067 32.6338 139.84 33.1425 138.947 34.0144C138.055 34.8862 137.57 36.0499 137.6 37.25V37.28C137.6 37.3065 137.611 37.3319 137.629 37.3507C137.648 37.3694 137.673 37.38 137.7 37.38Z" fill="white"/>
<path d="M170.82 31.13C171.407 29.5633 172.35 28.4166 173.65 27.69C179.41 24.49 183.603 25.5733 186.23 30.94C186.357 31.2066 186.503 31.2166 186.67 30.97C189.083 27.2633 192.363 25.5933 196.51 25.96C203.39 26.56 203.64 32.03 202.73 37.78C201.877 43.2066 200.973 48.6266 200.02 54.04C199.967 54.3266 199.793 54.4733 199.5 54.48L191.69 54.55C191.283 54.5566 191.11 54.36 191.17 53.96C192.03 48.3466 192.967 42.78 193.98 37.26C194.79 32.84 188.97 32.17 186.91 35.23C186.443 35.93 186.05 37.2 185.73 39.04C184.857 44.0533 184.01 49.07 183.19 54.09C183.143 54.3633 182.98 54.5 182.7 54.5H175.03C174.71 54.5 174.577 54.3433 174.63 54.03C175.38 49.47 178.24 38.47 176.93 34.44C176.877 34.2748 176.786 34.1239 176.665 33.9991C176.543 33.8742 176.395 33.7787 176.23 33.72C171.87 32.22 170.05 34.75 169.33 38.7C168.41 43.78 167.513 48.8666 166.64 53.96C166.614 54.111 166.536 54.248 166.419 54.3468C166.301 54.4456 166.153 54.4998 166 54.5H158.32C157.867 54.5 157.677 54.2733 157.75 53.82L162.22 27.04C162.28 26.66 162.503 26.47 162.89 26.47L170.28 26.51C170.344 26.5106 170.406 26.5251 170.464 26.5524C170.522 26.5797 170.573 26.6192 170.615 26.6684C170.656 26.7175 170.687 26.7752 170.705 26.8375C170.724 26.8998 170.729 26.9654 170.72 27.03L170.14 30.95C170.116 31.0401 170.129 31.1361 170.176 31.2167C170.223 31.2974 170.3 31.3561 170.39 31.38C170.48 31.4038 170.576 31.3909 170.657 31.344C170.737 31.2971 170.796 31.2201 170.82 31.13Z" fill="white"/>
<path d="M233.17 31.18C235.643 27.6 238.84 25.8566 242.76 25.95C250.51 26.14 251.15 32.27 250.16 38.67C249.367 43.77 248.517 48.8633 247.61 53.95C247.55 54.3166 247.333 54.5 246.96 54.5H239.27C238.85 54.5 238.673 54.2933 238.74 53.88C239.433 49.4466 240.173 45.0733 240.96 40.76C242.87 30.31 233.06 31.76 231.88 38.83C231.047 43.87 230.203 48.92 229.35 53.98C229.29 54.32 229.087 54.49 228.74 54.49L220.86 54.52C220.513 54.5266 220.367 54.3566 220.42 54.01L224.88 27.14C224.953 26.7133 225.203 26.5 225.63 26.5H233.02C233.367 26.5 233.51 26.67 233.45 27.01L232.71 30.99C232.692 31.0494 232.697 31.1135 232.723 31.1697C232.75 31.2259 232.796 31.2701 232.854 31.2939C232.911 31.3176 232.975 31.3191 233.034 31.298C233.092 31.277 233.141 31.2349 233.17 31.18Z" fill="white"/>
<path d="M302.43 51.13C296.32 58.51 280.71 54.87 287.32 43.34C290.35 38.05 297.26 38.08 302.74 37.22C304.12 37 304.92 36.3066 305.14 35.14C305.242 34.6051 305.142 34.0513 304.86 33.5858C304.577 33.1203 304.132 32.7762 303.61 32.62C300.903 31.8 298.84 32.5133 297.42 34.76C297.344 34.8817 297.237 34.9815 297.109 35.0499C296.981 35.1182 296.836 35.1527 296.69 35.15L289.71 34.94C289.626 34.9385 289.545 34.9165 289.472 34.8759C289.398 34.8354 289.337 34.7775 289.291 34.7074C289.246 34.6373 289.218 34.557 289.211 34.4738C289.204 34.3906 289.217 34.3068 289.25 34.23C290.763 30.6966 293.35 28.2933 297.01 27.02C302.01 25.28 311.37 25.34 313.66 31.35C314.173 32.7033 314.183 34.8033 313.69 37.65C312.743 43.07 311.823 48.49 310.93 53.91C310.87 54.3033 310.64 54.5 310.24 54.5H302.97C302.617 54.5 302.46 54.3233 302.5 53.97L302.81 51.29C302.87 50.8033 302.743 50.75 302.43 51.13ZM295.19 45.19C292.32 50.31 303.42 51.1 303.85 42.67C303.87 42.35 303.72 42.2166 303.4 42.27C300.98 42.65 296.42 42.99 295.19 45.19Z" fill="white"/>
<path d="M335.64 33.56C327.73 28.09 321.75 49.8 332 47.99C333.94 47.6433 335.213 46.3233 335.82 44.03C335.86 43.8776 335.949 43.7428 336.074 43.6469C336.199 43.551 336.352 43.4993 336.51 43.5H343.97C344.377 43.5 344.52 43.6933 344.4 44.08C339.59 59.28 314.93 59.51 317.65 40.7C318.64 33.89 323.05 28.49 329.68 26.52C336.94 24.35 346.46 27.44 345.36 36.89C345.333 37.13 345.2 37.25 344.96 37.25H337.75C337.423 37.25 337.237 37.0866 337.19 36.76C337 35.52 336.73 34.32 335.64 33.56Z" fill="white"/>
<path d="M411.75 51.16C406.1 57.19 391.59 56.29 395.68 45.15C398.23 38.21 405.21 38.04 411.41 37.35C413.14 37.16 414.99 35.84 414.19 33.91C412.93 30.87 407.86 32.79 406.55 34.77C406.39 35.01 406.163 35.1267 405.87 35.12L398.92 34.95C398.493 34.9367 398.353 34.73 398.5 34.33C402.37 23.62 424.91 22.16 422.97 35.65C422.09 41.7433 421.163 47.8267 420.19 53.9C420.13 54.3 419.897 54.5 419.49 54.5H412.11C411.81 54.5 411.68 54.35 411.72 54.05L412.07 51.31C412.117 50.9233 412.01 50.8733 411.75 51.16ZM406.54 43.61C403.72 44.36 402.19 48.76 406.18 48.95C410.46 49.15 412.783 47.0067 413.15 42.52C413.177 42.1933 413.03 42.0633 412.71 42.13C410.623 42.5833 408.567 43.0767 406.54 43.61Z" fill="white"/>
<path d="M468.67 43.12C467.25 49.59 475.12 49.89 478.2 46.16C478.467 45.84 478.81 45.69 479.23 45.71L486.16 46.07C486.247 46.0742 486.331 46.1005 486.405 46.1465C486.479 46.1925 486.54 46.2566 486.582 46.3328C486.624 46.409 486.646 46.4947 486.646 46.5817C486.645 46.6687 486.623 46.7542 486.58 46.83C483.153 52.7234 477.79 55.42 470.49 54.92C458.01 54.06 457.46 40.48 463.22 32.72C471.55 21.5 491.82 23.99 487.33 41.96C487.25 42.28 487.047 42.4434 486.72 42.45L469.03 42.82C468.83 42.8267 468.71 42.9267 468.67 43.12ZM470.11 37.4L479.92 37.09C479.952 37.09 479.982 37.0774 480.005 37.0549C480.027 37.0324 480.04 37.0019 480.04 36.97V36.92C480.001 35.7254 479.454 34.5962 478.521 33.7806C477.587 32.9649 476.342 32.5295 475.06 32.57L474.68 32.58C474.044 32.5995 473.419 32.7355 472.838 32.9803C472.258 33.2251 471.735 33.5738 471.298 34.0066C470.862 34.4394 470.521 34.9477 470.294 35.5025C470.068 36.0573 469.961 36.6478 469.98 37.24V37.29C469.981 37.3058 469.986 37.3212 469.993 37.3353C470 37.3494 470.01 37.3619 470.022 37.3721C470.034 37.3823 470.048 37.3901 470.063 37.3949C470.078 37.3996 470.094 37.4014 470.11 37.4Z" fill="white"/>
<path d="M522.97 47.34C524.23 46.59 524.7 45.35 525.34 44.05C525.527 43.6833 525.827 43.5 526.24 43.5H533.24C533.713 43.5 533.877 43.7267 533.73 44.18C531.39 51.5733 526.23 55.2033 518.25 55.07C499.26 54.76 505.48 25.88 523.92 26.09C530.69 26.17 535.35 29.58 534.99 36.76C534.977 37.0867 534.803 37.25 534.47 37.25H527.05C526.79 37.25 526.63 37.1233 526.57 36.87C525.41 32.06 521.42 31.18 518.44 35.06C516.407 37.7067 515.65 40.8767 516.17 44.57C516.66 48.07 520.12 49.05 522.97 47.34Z" fill="white"/>
<path d="M541.26 32.74C549.3 21.64 570.27 24.11 566.32 41.37C564.41 49.75 557.96 55.39 549.1 54.99C536.22 54.4 535.2 41.1 541.26 32.74ZM549.987 48.2443C551.263 48.6054 552.719 48.1315 554.034 46.927C555.35 45.7225 556.417 43.886 557.001 41.8214C557.29 40.7992 557.452 39.7517 557.478 38.7389C557.503 37.726 557.392 36.7676 557.15 35.9183C556.907 35.0691 556.539 34.3456 556.066 33.7893C555.593 33.2329 555.024 32.8545 554.393 32.6757C553.117 32.3147 551.661 32.7885 550.346 33.9931C549.03 35.1976 547.963 37.0341 547.379 39.0986C547.09 40.1209 546.928 41.1684 546.902 42.1812C546.877 43.1941 546.988 44.1525 547.23 45.0017C547.473 45.851 547.841 46.5745 548.314 47.1308C548.787 47.6872 549.355 48.0656 549.987 48.2443Z" fill="white"/>
<path d="M581.7 31.18C585.39 25.55 594.79 22.95 597.23 31.09C597.35 31.49 597.523 31.5133 597.75 31.16C600.317 27.0867 603.88 25.39 608.44 26.07C614.34 26.95 614.85 31.81 614.02 37C613.12 42.64 612.183 48.28 611.21 53.92C611.137 54.3133 610.903 54.51 610.51 54.51L602.75 54.5C602.39 54.5 602.24 54.32 602.3 53.96C603.2 48.9867 604.043 44.0267 604.83 39.08C606.09 31.11 598.3 31.66 597.17 37.9C596.197 43.24 595.27 48.5867 594.39 53.94C594.33 54.32 594.107 54.51 593.72 54.51L586.27 54.5C585.863 54.5 585.697 54.2967 585.77 53.89C586.71 48.5567 587.617 43.27 588.49 38.03C589.64 31.16 581.41 32.87 580.8 36.56C579.84 42.3867 578.837 48.21 577.79 54.03C577.737 54.3433 577.553 54.5 577.24 54.5L569.49 54.51C569.063 54.51 568.883 54.2967 568.95 53.87L573.4 27.13C573.467 26.7167 573.713 26.5067 574.14 26.5L581.29 26.49C581.717 26.49 581.9 26.7 581.84 27.12L581.27 31.01C581.265 31.0621 581.276 31.1146 581.303 31.1595C581.331 31.2043 581.372 31.239 581.42 31.2583C581.469 31.2776 581.523 31.2803 581.573 31.2662C581.624 31.2521 581.668 31.2218 581.7 31.18Z" fill="white"/>
<path d="M219.06 26.8799L214.52 54.2299C214.508 54.3042 214.471 54.3719 214.414 54.4213C214.357 54.4707 214.285 54.4985 214.21 54.4999H205.93C205.883 54.5005 205.837 54.4909 205.795 54.4718C205.752 54.4527 205.715 54.4245 205.684 54.3893C205.654 54.3541 205.631 54.3126 205.618 54.2678C205.606 54.223 205.603 54.176 205.61 54.1299L210.16 26.7099C210.172 26.6357 210.209 26.5679 210.266 26.5186C210.323 26.4692 210.395 26.4414 210.47 26.4399L218.75 26.5099C218.796 26.5108 218.841 26.5215 218.882 26.5412C218.923 26.561 218.96 26.5893 218.989 26.6244C219.019 26.6594 219.04 26.7004 219.052 26.7445C219.065 26.7886 219.067 26.8348 219.06 26.8799Z" fill="white"/>
<path d="M352.25 26.53L360.54 26.44C360.585 26.4394 360.63 26.4487 360.671 26.4673C360.713 26.4859 360.749 26.5133 360.779 26.5477C360.809 26.582 360.83 26.6223 360.842 26.6659C360.855 26.7095 360.857 26.7553 360.85 26.8L356.3 54.25C356.288 54.3216 356.252 54.3868 356.197 54.4343C356.142 54.4818 356.073 54.5086 356 54.51L347.71 54.5C347.665 54.5006 347.62 54.4912 347.579 54.4726C347.537 54.454 347.501 54.4266 347.471 54.3923C347.441 54.358 347.42 54.3176 347.408 54.274C347.395 54.2304 347.393 54.1847 347.4 54.14L351.95 26.79C351.962 26.7184 351.998 26.6532 352.053 26.6056C352.108 26.5581 352.177 26.5314 352.25 26.53Z" fill="white"/>
<path d="M86.22 37.38C86.1908 37.38 86.1628 37.3684 86.1422 37.3478C86.1216 37.3272 86.11 37.2992 86.11 37.27V37.26C86.0803 36.0573 86.5649 34.891 87.4574 34.0173C88.3499 33.1435 89.5773 32.6338 90.87 32.6L91.23 32.59C91.8708 32.5729 92.5085 32.6734 93.1066 32.8858C93.7047 33.0981 94.2516 33.4182 94.7159 33.8278C95.1802 34.2373 95.5529 34.7282 95.8127 35.2725C96.0725 35.8168 96.2143 36.4038 96.23 37V37.01C96.23 37.0392 96.2184 37.0672 96.1978 37.0878C96.1771 37.1084 96.1492 37.12 96.12 37.12L86.22 37.38Z" fill="black"/>
<path d="M470.11 37.4C470.094 37.4013 470.078 37.3996 470.063 37.3948C470.048 37.39 470.034 37.3823 470.022 37.372C470.01 37.3618 470 37.3493 469.993 37.3352C469.986 37.3211 469.981 37.3058 469.98 37.29V37.24C469.961 36.6477 470.068 36.0573 470.294 35.5024C470.521 34.9476 470.862 34.4393 471.298 34.0065C471.735 33.5738 472.258 33.225 472.838 32.9803C473.419 32.7355 474.044 32.5995 474.68 32.58L475.06 32.57C476.342 32.5295 477.587 32.9649 478.521 33.7805C479.454 34.5962 480.001 35.7253 480.04 36.92V36.97C480.04 37.0018 480.027 37.0323 480.005 37.0548C479.982 37.0773 479.952 37.09 479.92 37.09L470.11 37.4Z" fill="black"/>
<path d="M547.379 39.0987C546.162 43.3978 547.33 47.4925 549.987 48.2444C552.644 48.9963 555.785 46.1206 557.001 41.8215C558.218 37.5223 557.05 33.4276 554.393 32.6757C551.736 31.9238 548.595 34.7995 547.379 39.0987Z" fill="black"/>
<path d="M372.942 38.9608C371.664 43.0399 372.798 47.0268 375.475 47.8658C378.153 48.7048 381.359 46.0782 382.638 41.9991C383.916 37.92 382.782 33.9331 380.105 33.0942C377.427 32.2552 374.221 34.8818 372.942 38.9608Z" fill="black"/>
<path d="M436.465 38.9503C435.21 43.0308 436.375 47.01 439.067 47.8382C441.759 48.6664 444.959 46.03 446.215 41.9496C447.47 37.8691 446.305 33.8899 443.613 33.0617C440.921 32.2335 437.721 34.8699 436.465 38.9503Z" fill="black"/>
<path d="M295.19 45.19C296.42 42.99 300.98 42.65 303.4 42.27C303.72 42.2166 303.87 42.35 303.85 42.67C303.42 51.1 292.32 50.31 295.19 45.19Z" fill="black"/>
<path d="M406.18 48.95C402.19 48.76 403.72 44.36 406.54 43.61C408.567 43.0767 410.623 42.5833 412.71 42.13C413.03 42.0633 413.177 42.1933 413.15 42.52C412.783 47.0067 410.46 49.15 406.18 48.95Z" fill="black"/>
<path d="M498.533 53.7991C500.613 52.0848 501.026 49.1508 499.456 47.2459C497.885 45.341 494.926 45.1865 492.847 46.9008C490.767 48.6151 490.354 51.5491 491.924 53.454C493.495 55.359 496.454 55.5135 498.533 53.7991Z" fill="white"/>
</g>
<defs>
<clipPath id="clip0_100_98">
<rect width="633" height="73" fill="white"/>
</clipPath>
</defs>
</svg>
