<svg width="304" height="188" viewBox="0 0 304 188" fill="none" xmlns="http://www.w3.org/2000/svg">
<path d="M123.29 92.5H1.28003C0.760029 92.5 0.5 92.24 0.5 91.72V0.530029C0.5 0.176696 0.676696 0 1.03003 0H209.75C210.083 0 210.25 0.166667 210.25 0.5V47.27C210.25 47.61 210.42 47.78 210.76 47.78L248.49 47.73C249.687 47.7304 250.834 48.2052 251.68 49.05L303.1 100.48C303.306 100.682 303.469 100.925 303.581 101.192C303.693 101.46 303.75 101.748 303.75 102.04V162.75C303.75 163.083 303.583 163.25 303.25 163.25H272.96C272.547 163.25 272.267 163.443 272.12 163.83C260.41 194.91 217.6 194.96 206.05 164.34C205.927 164.019 205.71 163.743 205.428 163.549C205.146 163.354 204.812 163.25 204.47 163.25H100C99.68 163.25 99.46 163.4 99.34 163.7C86.78 195.23 45.27 195.17 32.75 163.61C32.65 163.357 32.4667 163.233 32.2 163.24L1.01001 163.28C0.874749 163.28 0.744997 163.226 0.649353 163.131C0.553709 163.035 0.5 162.905 0.5 162.77V115.28C0.5 114.753 0.760029 114.49 1.28003 114.49L11.45 114.5C11.5853 114.5 11.719 114.527 11.8429 114.581C11.9667 114.634 12.0781 114.712 12.17 114.81L21.96 124.84C22.1785 125.062 22.3503 125.324 22.4653 125.613C22.5804 125.901 22.6364 126.21 22.63 126.52L22.44 140.22C22.4387 140.322 22.4579 140.423 22.4965 140.518C22.5351 140.612 22.5924 140.698 22.6649 140.771C22.7375 140.843 22.8239 140.901 22.9192 140.94C23.0145 140.98 23.1167 141 23.22 141H32.02C32.4467 141 32.7367 140.8 32.89 140.4C44.32 109.66 87.91 108.82 99.19 140.24C99.2687 140.463 99.4139 140.655 99.6055 140.791C99.7972 140.928 100.026 141 100.26 141H204.5C204.794 141 205.081 140.911 205.324 140.745C205.566 140.579 205.753 140.344 205.86 140.07C217.74 109.56 260.52 109.01 272.19 140.32C272.266 140.519 272.401 140.69 272.578 140.81C272.755 140.929 272.965 140.992 273.18 140.99L280.72 140.81C281.073 140.803 281.25 140.623 281.25 140.27V110.72C281.25 110.36 281.123 110.053 280.87 109.8C268.11 96.8933 255.243 84.1 242.27 71.42C239.82 69.03 238.28 70.26 235.45 70.26C227.243 70.2467 219.033 70.2166 210.82 70.17C210.44 70.17 210.25 70.3566 210.25 70.73V108.05C210.25 108.403 210.127 108.707 209.88 108.96L199.98 118.92C199.74 119.16 199.45 119.283 199.11 119.29L189.99 119.54C188.963 119.567 188.45 119.07 188.45 118.05L188.42 22.57C188.42 22.1767 188.22 21.98 187.82 21.98L23.19 22.11C23.0994 22.11 23.0097 22.1281 22.926 22.1633C22.8422 22.1984 22.7662 22.25 22.7021 22.315C22.638 22.38 22.5872 22.4572 22.5526 22.5421C22.5179 22.627 22.5 22.7181 22.5 22.81V69.75C22.5 70.4233 22.8333 70.7567 23.5 70.75L122.74 70.74C123.82 70.74 123.98 70.3567 123.22 69.59C118.853 65.21 114.28 60.6567 109.5 55.93C106.08 52.55 105.76 48.82 106.71 44.36C106.797 43.9533 107.047 43.75 107.46 43.75H127.22C128.276 43.7499 129.29 44.1708 130.04 44.92L166.06 80.94C166.134 81.0134 166.192 81.1007 166.232 81.1968C166.272 81.2929 166.293 81.3959 166.293 81.5C166.293 81.6041 166.272 81.7071 166.232 81.8032C166.192 81.8993 166.134 81.9866 166.06 82.06L129.48 118.64C129.198 118.925 128.862 119.15 128.491 119.303C128.12 119.456 127.722 119.533 127.32 119.53L107.24 119.43C106.793 119.423 106.57 119.197 106.57 118.75L106.54 110.66C106.54 110.28 106.673 109.953 106.94 109.68L123.53 93.09C123.93 92.6967 123.85 92.5 123.29 92.5ZM78.95 152.1C78.95 148.679 77.5909 145.398 75.1717 142.978C72.7525 140.559 69.4713 139.2 66.05 139.2C62.6287 139.2 59.3476 140.559 56.9283 142.978C54.5091 145.398 53.15 148.679 53.15 152.1C53.15 155.521 54.5091 158.802 56.9283 161.222C59.3476 163.641 62.6287 165 66.05 165C69.4713 165 72.7525 163.641 75.1717 161.222C77.5909 158.802 78.95 155.521 78.95 152.1ZM251.86 152.11C251.86 148.689 250.501 145.408 248.082 142.988C245.662 140.569 242.381 139.21 238.96 139.21C235.539 139.21 232.258 140.569 229.838 142.988C227.419 145.408 226.06 148.689 226.06 152.11C226.06 155.531 227.419 158.812 229.838 161.232C232.258 163.651 235.539 165.01 238.96 165.01C242.381 165.01 245.662 163.651 248.082 161.232C250.501 158.812 251.86 155.531 251.86 152.11Z" fill="black"/>
</svg>
