<svg width="10" height="12" viewBox="0 0 10 12" fill="none" xmlns="http://www.w3.org/2000/svg">
<path d="M3.11266 8.88933C3.45971 9.3316 3.77558 9.79748 4.05797 10.2836C4.29908 10.7408 4.39958 11.0508 4.57581 11.6017C4.68386 11.906 4.78153 11.9968 4.99149 11.9968C5.22033 11.9968 5.32414 11.8423 5.40435 11.6033C5.5709 11.0831 5.7016 10.6861 5.90779 10.311C6.31239 9.5867 6.81513 8.94312 7.30914 8.32454C7.4429 8.14949 8.30753 7.12963 8.69679 6.32492C8.69679 6.32492 9.17523 5.44094 9.17523 4.20639C9.17523 3.05158 8.7034 2.25064 8.7034 2.25064L7.34499 2.61442L6.52 4.78721L6.31593 5.08683L6.27511 5.14109L6.22085 5.20903L6.12554 5.31755L5.98942 5.45368L5.25478 6.0522L3.41817 7.11264L3.11266 8.88933Z" fill="#28B446"/>
<path d="M1.21707 6.17629C1.66531 7.20017 2.52971 8.10019 3.11454 8.89004L6.22085 5.21045C6.22085 5.21045 5.78323 5.78278 4.98937 5.78278C4.10516 5.78278 3.3908 5.07669 3.3908 4.18634C3.3908 3.57579 3.75812 3.15633 3.75812 3.15633L1.6495 3.72135L1.21707 6.17629Z" fill="#FBBB00"/>
<path d="M6.25553 0.189201C7.2872 0.521843 8.17023 1.22016 8.70435 2.24993L6.2218 5.20832C6.2218 5.20832 6.58912 4.78131 6.58912 4.17454C6.58912 3.26343 5.82192 2.58281 4.99315 2.58281C4.20943 2.58281 3.7593 3.1542 3.7593 3.1542V1.29046L6.25553 0.189201Z" fill="#518EF8"/>
<path d="M1.7861 1.49642C2.40231 0.759179 3.48658 0 4.98135 0C5.70656 0 6.25294 0.190384 6.25294 0.190384L3.75694 3.15585H1.98851L1.7861 1.49642Z" fill="#1A73E8"/>
<path d="M1.21707 6.17629C1.21707 6.17629 0.804688 5.36874 0.804688 4.19884C0.804688 3.0931 1.23453 2.12655 1.7861 1.49641L3.75836 3.15609L1.21707 6.17629Z" fill="#F14336"/>
</svg>
