<svg width="16" height="16" viewBox="0 0 16 16" fill="none" xmlns="http://www.w3.org/2000/svg">
<g clip-path="url(#clip0_147_40)">
<path d="M12 3H4V13H12V3Z" fill="white"/>
<path d="M13.971 10.77L14.2672 10.6005C14.6363 10.3892 14.9335 10.0851 15.1617 9.68195C15.3867 9.28416 15.5 8.85057 15.5 8.375C15.5 7.87003 15.3737 7.41224 15.1242 6.99456C14.8764 6.58243 14.5495 6.286 14.1417 6.09226L13.7289 5.89619L13.8871 5.46749C13.9828 5.20837 14.0344 4.91176 14.0344 4.56875C14.0344 3.84886 13.7994 3.25436 13.3246 2.75329C12.8505 2.25299 12.2992 2.01562 11.6438 2.01562C11.3475 2.01562 11.0742 2.06929 10.8138 2.17549L10.3807 2.35208L10.1756 1.93171C9.96489 1.49972 9.6619 1.15444 9.26546 0.887272C8.8771 0.628615 8.45791 0.5 8 0.5C7.54187 0.5 7.12319 0.628707 6.73551 0.889745L6.73424 0.890602C6.33628 1.15679 6.03584 1.50134 5.82439 1.93484L5.61932 2.35523L5.18621 2.17862C4.92604 2.07253 4.6497 2.01875 4.35625 2.01875C3.70178 2.01875 3.14551 2.25865 2.66324 2.75936C2.18426 3.25667 1.94687 3.85288 1.94687 4.57188C1.94687 4.86586 2.0009 5.16684 2.11292 5.4709L2.27081 5.89944L1.85828 6.09539C1.45029 6.28919 1.1234 6.58578 0.875382 6.99827C0.626548 7.41212 0.5 7.86954 0.5 8.375C0.5 8.85024 0.613117 9.28438 0.835796 9.68301C1.06296 10.0841 1.36009 10.3864 1.73189 10.6018L2.01989 10.7686L1.9771 11.0987C1.95548 11.2655 1.94687 11.3692 1.94687 11.4281C1.94687 12.1471 2.18426 12.7433 2.66326 13.2407L2.66416 13.2416C3.14517 13.7437 3.70059 13.9812 4.35625 13.9812C4.65256 13.9812 4.92582 13.9275 5.18627 13.8214L5.62346 13.6432L5.82643 14.0694C6.03918 14.5162 6.33655 14.8608 6.7236 15.118L6.72681 15.1201C7.10269 15.3741 7.52301 15.5 8 15.5C8.45993 15.5 8.87744 15.3735 9.26256 15.1116L9.26576 15.1094L9.26577 15.1094C9.66371 14.8432 9.96416 14.4987 10.1756 14.0652L10.3806 13.6449L10.8137 13.8214C11.0739 13.9274 11.3503 13.9812 11.6438 13.9812C12.2992 13.9812 12.8505 13.7439 13.3245 13.2436L13.971 10.77ZM13.971 10.77L14.021 11.1077M13.971 10.77L14.021 11.1077M14.021 11.1077C14.0278 11.1538 14.0344 11.2543 14.0344 11.4281M14.021 11.1077L14.0344 11.4281M7.012 8.78403L9.58366 4.91688L9.58831 4.90987L9.59321 4.90303C9.7668 4.66013 10.0113 4.51434 10.296 4.46878L10.3043 4.46745L10.3043 4.46752C10.5678 4.42988 10.8327 4.47888 11.07 4.63029C11.3288 4.79191 11.4783 5.03787 11.5336 5.30956L11.5355 5.3188L11.5354 5.31882C11.5852 5.58904 11.5404 5.8632 11.3831 6.10794L11.3784 6.11519L11.3783 6.11515L8.08223 11.0515C7.88219 11.3822 7.56115 11.5507 7.19177 11.5561L7.18437 11.5563V11.5562C6.96638 11.5562 6.76086 11.4849 6.58228 11.3641L6.56659 11.3535L6.55175 11.3417L6.46112 11.2698L6.43862 11.252L6.41832 11.2317L4.5777 9.39106L4.57258 9.38594L4.57262 9.3859C4.37127 9.17864 4.27187 8.91733 4.27187 8.63437C4.27187 8.35117 4.36958 8.08581 4.5777 7.8777L4.58751 7.86788L4.59785 7.85863C4.79911 7.67856 5.04291 7.5741 5.32023 7.56292C5.32036 7.56291 5.3205 7.5629 5.32064 7.5629L5.34062 8.0625L7.012 8.78403ZM7.012 8.78403L6.10355 7.8777C6.10348 7.87762 6.1034 7.87754 6.10332 7.87746L7.012 8.78403ZM14.0344 11.4281C14.0344 12.1504 13.7968 12.7451 13.3246 13.2436L14.0344 11.4281Z" fill="#3897F0" stroke="black"/>
</g>
<defs>
<clipPath id="clip0_147_40">
<rect width="16" height="16" fill="white"/>
</clipPath>
</defs>
</svg>
