<?xml version="1.0" encoding="UTF-8" standalone="no"?>
<!DOCTYPE svg PUBLIC "-//W3C//DTD SVG 1.1//EN" "http://www.w3.org/Graphics/SVG/1.1/DTD/svg11.dtd">
<svg xmlns="http://www.w3.org/2000/svg" version="1.1" viewBox="0.00 0.00 98.00 152.00">
<g stroke-width="2.00" fill="none" stroke-linecap="butt">
<path stroke="#4081b3" vector-effect="non-scaling-stroke" d="
  M 97.59 17.00
  Q 96.75 17.40 96.24 17.19"
/>
<path stroke="#6fbbf4" vector-effect="non-scaling-stroke" d="
  M 96.24 17.19
  Q 96.85 12.49 91.78 11.78
  A 1.57 1.50 -53.8 0 0 90.84 11.95
  Q 83.86 15.79 78.52 16.81
  Q 49.51 22.37 18.23 16.57
  C 13.60 15.71 3.23 6.99 1.46 17.02"
/>
<path stroke="#4081b3" vector-effect="non-scaling-stroke" d="
  M 1.46 17.02
  L 0.34 15.75"
/>
<path stroke="#5a90b8" vector-effect="non-scaling-stroke" d="
  M 96.24 17.19
  Q 95.44 19.81 92.30 21.06
  Q 89.69 22.09 86.64 24.15"
/>
<path stroke="#a7d8fc" vector-effect="non-scaling-stroke" d="
  M 86.64 24.15
  Q 86.59 24.01 86.49 23.92
  Q 86.33 23.78 86.12 23.84
  Q 76.27 26.72 65.31 27.59
  C 47.75 28.98 28.88 28.83 12.07 23.86
  Q 11.61 23.73 11.45 24.17
  L 11.33 24.51"
/>
<path stroke="#5a90b8" vector-effect="non-scaling-stroke" d="
  M 11.33 24.51
  C 11.29 23.80 10.95 23.37 10.25 23.15
  Q 4.25 21.37 1.46 17.02"
/>
<path stroke="#799fbb" vector-effect="non-scaling-stroke" d="
  M 11.33 24.51
  L 14.29 65.67"
/>
<path stroke="#5a90b8" vector-effect="non-scaling-stroke" d="
  M 14.29 65.67
  L 14.48 67.83"
/>
<path stroke="#4081b3" vector-effect="non-scaling-stroke" d="
  M 14.48 67.83
  Q 16.08 92.74 18.20 117.18
  C 19.32 130.17 24.65 132.62 36.76 132.71
  Q 49.75 132.80 58.68 132.67
  C 77.16 132.42 78.94 129.22 80.42 110.68
  Q 82.13 89.31 83.49 68.04"
/>
<path stroke="#5a90b8" vector-effect="non-scaling-stroke" d="
  M 83.49 68.04
  L 83.72 65.42"
/>
<path stroke="#799fbb" vector-effect="non-scaling-stroke" d="
  M 83.72 65.42
  L 86.64 24.15"
/>
<path stroke="#a7d8fc" vector-effect="non-scaling-stroke" d="
  M 83.72 65.42
  Q 76.73 62.13 66.81 61.19
  Q 45.31 59.14 26.75 61.73
  Q 19.42 62.76 14.29 65.67"
/>
<path stroke="#6fbbf4" vector-effect="non-scaling-stroke" d="
  M 83.49 68.04
  Q 74.48 71.71 61.99 72.49
  C 46.86 73.44 26.93 74.24 14.48 67.83"
/>
</g>
<path fill="#55acee" d="
  M 42.84 0.00
  L 56.03 0.00
  Q 73.74 0.28 85.25 3.42
  C 92.44 5.38 98.82 8.80 97.59 17.00
  Q 96.75 17.40 96.24 17.19
  Q 96.85 12.49 91.78 11.78
  A 1.57 1.50 -53.8 0 0 90.84 11.95
  Q 83.86 15.79 78.52 16.81
  Q 49.51 22.37 18.23 16.57
  C 13.60 15.71 3.23 6.99 1.46 17.02
  L 0.34 15.75
  C -1.15 0.68 33.38 0.09 42.84 0.00
  Z"
/>
<path fill="#88c9f9" d="
  M 96.24 17.19
  Q 95.44 19.81 92.30 21.06
  Q 89.69 22.09 86.64 24.15
  Q 86.59 24.01 86.49 23.92
  Q 86.33 23.78 86.12 23.84
  Q 76.27 26.72 65.31 27.59
  C 47.75 28.98 28.88 28.83 12.07 23.86
  Q 11.61 23.73 11.45 24.17
  L 11.33 24.51
  C 11.29 23.80 10.95 23.37 10.25 23.15
  Q 4.25 21.37 1.46 17.02
  C 3.23 6.99 13.60 15.71 18.23 16.57
  Q 49.51 22.37 78.52 16.81
  Q 83.86 15.79 90.84 11.95
  A 1.57 1.50 -53.8 0 1 91.78 11.78
  Q 96.85 12.49 96.24 17.19
  Z"
/>
<path fill="#2b5677" d="
  M 0.34 15.75
  L 1.46 17.02
  Q 4.25 21.37 10.25 23.15
  C 10.95 23.37 11.29 23.80 11.33 24.51
  L 14.29 65.67
  L 14.48 67.83
  Q 16.08 92.74 18.20 117.18
  C 19.32 130.17 24.65 132.62 36.76 132.71
  Q 49.75 132.80 58.68 132.67
  C 77.16 132.42 78.94 129.22 80.42 110.68
  Q 82.13 89.31 83.49 68.04
  L 83.72 65.42
  L 86.64 24.15
  Q 89.69 22.09 92.30 21.06
  Q 95.44 19.81 96.24 17.19
  Q 96.75 17.40 97.59 17.00
  Q 93.54 75.39 89.24 133.75
  C 88.27 146.93 85.08 151.21 71.41 151.23
  Q 49.19 151.26 26.96 151.25
  C 15.06 151.25 9.74 147.53 8.87 135.57
  Q 4.51 75.68 0.34 15.75
  Z"
/>
<path fill="#c6e7ff" d="
  M 86.64 24.15
  L 83.72 65.42
  Q 76.73 62.13 66.81 61.19
  Q 45.31 59.14 26.75 61.73
  Q 19.42 62.76 14.29 65.67
  L 11.33 24.51
  L 11.45 24.17
  Q 11.61 23.73 12.07 23.86
  C 28.88 28.83 47.75 28.98 65.31 27.59
  Q 76.27 26.72 86.12 23.84
  Q 86.33 23.78 86.49 23.92
  Q 86.59 24.01 86.64 24.15
  Z"
/>
<path fill="#88c9f9" d="
  M 83.72 65.42
  L 83.49 68.04
  Q 74.48 71.71 61.99 72.49
  C 46.86 73.44 26.93 74.24 14.48 67.83
  L 14.29 65.67
  Q 19.42 62.76 26.75 61.73
  Q 45.31 59.14 66.81 61.19
  Q 76.73 62.13 83.72 65.42
  Z"
/>
<path fill="#55acee" d="
  M 14.48 67.83
  C 26.93 74.24 46.86 73.44 61.99 72.49
  Q 74.48 71.71 83.49 68.04
  Q 82.13 89.31 80.42 110.68
  C 78.94 129.22 77.16 132.42 58.68 132.67
  Q 49.75 132.80 36.76 132.71
  C 24.65 132.62 19.32 130.17 18.20 117.18
  Q 16.08 92.74 14.48 67.83
  Z"
/>
</svg>
